<?xml version="1.0" encoding="UTF-8" standalone="no"?>
<!DOCTYPE svg PUBLIC "-//W3C//DTD SVG 1.1//EN"
 "http://www.w3.org/Graphics/SVG/1.1/DTD/svg11.dtd">
<!-- Generated by graphviz version 2.36.0 (20140111.2315)
 -->
<!-- Title: controllers_diagram Pages: 1 -->
<svg width="962pt" height="982pt"
 viewBox="0.00 0.00 962.00 982.00" xmlns="http://www.w3.org/2000/svg" xmlns:xlink="http://www.w3.org/1999/xlink">
<g id="graph0" class="graph" transform="scale(1 1) rotate(0) translate(4 978)">
<title>controllers_diagram</title>
<polygon fill="none" stroke="none" points="-4,4 -4,-978 958,-978 958,4 -4,4"/>
<!-- _diagram_info -->
<g id="node1" class="node"><title>_diagram_info</title>
<text text-anchor="start" x="578" y="-82.6" font-family="Times,serif" font-size="13.00">Controllers diagram</text>
<text text-anchor="start" x="578" y="-68.6" font-family="Times,serif" font-size="13.00">Date: Jun 26 2017 &#45; 00:26</text>
<text text-anchor="start" x="578" y="-54.6" font-family="Times,serif" font-size="13.00">Migration version: 20170623043531</text>
<text text-anchor="start" x="578" y="-40.6" font-family="Times,serif" font-size="13.00">Generated by RailRoady 1.5.3</text>
<text text-anchor="start" x="578" y="-26.6" font-family="Times,serif" font-size="13.00">http://railroady.prestonlee.com</text>
</g>
<!-- CommentsController -->
<g id="node2" class="node"><title>CommentsController</title>
<path fill="none" stroke="black" d="M601,-627.5C601,-627.5 709,-627.5 709,-627.5 715,-627.5 721,-633.5 721,-639.5 721,-639.5 721,-828.5 721,-828.5 721,-834.5 715,-840.5 709,-840.5 709,-840.5 601,-840.5 601,-840.5 595,-840.5 589,-834.5 589,-828.5 589,-828.5 589,-639.5 589,-639.5 589,-633.5 595,-627.5 601,-627.5"/>
<text text-anchor="middle" x="655" y="-825.3" font-family="Times,serif" font-size="14.00">CommentsController</text>
<polyline fill="none" stroke="black" points="589,-817.5 721,-817.5 "/>
<text text-anchor="start" x="597" y="-802.3" font-family="Times,serif" font-size="14.00">create</text>
<text text-anchor="start" x="597" y="-787.3" font-family="Times,serif" font-size="14.00">destroy</text>
<text text-anchor="start" x="597" y="-772.3" font-family="Times,serif" font-size="14.00">edit</text>
<text text-anchor="start" x="597" y="-757.3" font-family="Times,serif" font-size="14.00">index</text>
<text text-anchor="start" x="597" y="-742.3" font-family="Times,serif" font-size="14.00">new</text>
<text text-anchor="start" x="597" y="-727.3" font-family="Times,serif" font-size="14.00">show</text>
<text text-anchor="start" x="597" y="-712.3" font-family="Times,serif" font-size="14.00">update</text>
<polyline fill="none" stroke="black" points="589,-704.5 721,-704.5 "/>
<polyline fill="none" stroke="black" points="589,-680.5 721,-680.5 "/>
<text text-anchor="start" x="597" y="-665.3" font-family="Times,serif" font-size="14.00">_layout</text>
<text text-anchor="start" x="597" y="-650.3" font-family="Times,serif" font-size="14.00">comment_params</text>
<text text-anchor="start" x="597" y="-635.3" font-family="Times,serif" font-size="14.00">set_comment</text>
</g>
<!-- RisksController -->
<g id="node3" class="node"><title>RisksController</title>
<path fill="none" stroke="black" d="M468,-627.5C468,-627.5 546,-627.5 546,-627.5 552,-627.5 558,-633.5 558,-639.5 558,-639.5 558,-828.5 558,-828.5 558,-834.5 552,-840.5 546,-840.5 546,-840.5 468,-840.5 468,-840.5 462,-840.5 456,-834.5 456,-828.5 456,-828.5 456,-639.5 456,-639.5 456,-633.5 462,-627.5 468,-627.5"/>
<text text-anchor="middle" x="507" y="-825.3" font-family="Times,serif" font-size="14.00">RisksController</text>
<polyline fill="none" stroke="black" points="456,-817.5 558,-817.5 "/>
<text text-anchor="start" x="464" y="-802.3" font-family="Times,serif" font-size="14.00">create</text>
<text text-anchor="start" x="464" y="-787.3" font-family="Times,serif" font-size="14.00">destroy</text>
<text text-anchor="start" x="464" y="-772.3" font-family="Times,serif" font-size="14.00">edit</text>
<text text-anchor="start" x="464" y="-757.3" font-family="Times,serif" font-size="14.00">index</text>
<text text-anchor="start" x="464" y="-742.3" font-family="Times,serif" font-size="14.00">new</text>
<text text-anchor="start" x="464" y="-727.3" font-family="Times,serif" font-size="14.00">show</text>
<text text-anchor="start" x="464" y="-712.3" font-family="Times,serif" font-size="14.00">update</text>
<polyline fill="none" stroke="black" points="456,-704.5 558,-704.5 "/>
<polyline fill="none" stroke="black" points="456,-680.5 558,-680.5 "/>
<text text-anchor="start" x="464" y="-665.3" font-family="Times,serif" font-size="14.00">_layout</text>
<text text-anchor="start" x="464" y="-650.3" font-family="Times,serif" font-size="14.00">risk_params</text>
<text text-anchor="start" x="464" y="-635.3" font-family="Times,serif" font-size="14.00">set_risk</text>
</g>
<!-- RolesController -->
<g id="node4" class="node"><title>RolesController</title>
<path fill="none" stroke="black" d="M145,-627.5C145,-627.5 224,-627.5 224,-627.5 230,-627.5 236,-633.5 236,-639.5 236,-639.5 236,-828.5 236,-828.5 236,-834.5 230,-840.5 224,-840.5 224,-840.5 145,-840.5 145,-840.5 139,-840.5 133,-834.5 133,-828.5 133,-828.5 133,-639.5 133,-639.5 133,-633.5 139,-627.5 145,-627.5"/>
<text text-anchor="middle" x="184.5" y="-825.3" font-family="Times,serif" font-size="14.00">RolesController</text>
<polyline fill="none" stroke="black" points="133,-817.5 236,-817.5 "/>
<text text-anchor="start" x="141" y="-802.3" font-family="Times,serif" font-size="14.00">create</text>
<text text-anchor="start" x="141" y="-787.3" font-family="Times,serif" font-size="14.00">destroy</text>
<text text-anchor="start" x="141" y="-772.3" font-family="Times,serif" font-size="14.00">edit</text>
<text text-anchor="start" x="141" y="-757.3" font-family="Times,serif" font-size="14.00">index</text>
<text text-anchor="start" x="141" y="-742.3" font-family="Times,serif" font-size="14.00">new</text>
<text text-anchor="start" x="141" y="-727.3" font-family="Times,serif" font-size="14.00">show</text>
<text text-anchor="start" x="141" y="-712.3" font-family="Times,serif" font-size="14.00">update</text>
<polyline fill="none" stroke="black" points="133,-704.5 236,-704.5 "/>
<polyline fill="none" stroke="black" points="133,-680.5 236,-680.5 "/>
<text text-anchor="start" x="141" y="-665.3" font-family="Times,serif" font-size="14.00">_layout</text>
<text text-anchor="start" x="141" y="-650.3" font-family="Times,serif" font-size="14.00">role_params</text>
<text text-anchor="start" x="141" y="-635.3" font-family="Times,serif" font-size="14.00">set_role</text>
</g>
<!-- InformationController -->
<g id="node5" class="node"><title>InformationController</title>
<path fill="none" stroke="black" d="M278,-608.5C278,-608.5 391,-608.5 391,-608.5 397,-608.5 403,-614.5 403,-620.5 403,-620.5 403,-809.5 403,-809.5 403,-815.5 397,-821.5 391,-821.5 391,-821.5 278,-821.5 278,-821.5 272,-821.5 266,-815.5 266,-809.5 266,-809.5 266,-620.5 266,-620.5 266,-614.5 272,-608.5 278,-608.5"/>
<text text-anchor="middle" x="334.5" y="-806.3" font-family="Times,serif" font-size="14.00">InformationController</text>
<polyline fill="none" stroke="black" points="266,-798.5 403,-798.5 "/>
<text text-anchor="start" x="274" y="-783.3" font-family="Times,serif" font-size="14.00">create</text>
<text text-anchor="start" x="274" y="-768.3" font-family="Times,serif" font-size="14.00">destroy</text>
<text text-anchor="start" x="274" y="-753.3" font-family="Times,serif" font-size="14.00">edit</text>
<text text-anchor="start" x="274" y="-738.3" font-family="Times,serif" font-size="14.00">index</text>
<text text-anchor="start" x="274" y="-723.3" font-family="Times,serif" font-size="14.00">new</text>
<text text-anchor="start" x="274" y="-708.3" font-family="Times,serif" font-size="14.00">show</text>
<text text-anchor="start" x="274" y="-693.3" font-family="Times,serif" font-size="14.00">update</text>
<polyline fill="none" stroke="black" points="266,-685.5 403,-685.5 "/>
<polyline fill="none" stroke="black" points="266,-661.5 403,-661.5 "/>
<text text-anchor="start" x="274" y="-646.3" font-family="Times,serif" font-size="14.00">_layout</text>
<text text-anchor="start" x="274" y="-631.3" font-family="Times,serif" font-size="14.00">information_params</text>
<text text-anchor="start" x="274" y="-616.3" font-family="Times,serif" font-size="14.00">set_information</text>
</g>
<!-- DevicesController -->
<g id="node6" class="node"><title>DevicesController</title>
<path fill="none" stroke="black" d="M12,-399.5C12,-399.5 104,-399.5 104,-399.5 110,-399.5 116,-405.5 116,-411.5 116,-411.5 116,-585.5 116,-585.5 116,-591.5 110,-597.5 104,-597.5 104,-597.5 12,-597.5 12,-597.5 6,-597.5 0,-591.5 0,-585.5 0,-585.5 0,-411.5 0,-411.5 0,-405.5 6,-399.5 12,-399.5"/>
<text text-anchor="middle" x="58" y="-582.3" font-family="Times,serif" font-size="14.00">DevicesController</text>
<polyline fill="none" stroke="black" points="0,-574.5 116,-574.5 "/>
<text text-anchor="start" x="8" y="-559.3" font-family="Times,serif" font-size="14.00">create</text>
<text text-anchor="start" x="8" y="-544.3" font-family="Times,serif" font-size="14.00">destroy</text>
<text text-anchor="start" x="8" y="-529.3" font-family="Times,serif" font-size="14.00">edit</text>
<text text-anchor="start" x="8" y="-514.3" font-family="Times,serif" font-size="14.00">index</text>
<text text-anchor="start" x="8" y="-499.3" font-family="Times,serif" font-size="14.00">new</text>
<text text-anchor="start" x="8" y="-484.3" font-family="Times,serif" font-size="14.00">show</text>
<text text-anchor="start" x="8" y="-469.3" font-family="Times,serif" font-size="14.00">unsubscribe</text>
<text text-anchor="start" x="8" y="-454.3" font-family="Times,serif" font-size="14.00">update</text>
<polyline fill="none" stroke="black" points="0,-446.5 116,-446.5 "/>
<polyline fill="none" stroke="black" points="0,-422.5 116,-422.5 "/>
<text text-anchor="start" x="8" y="-407.3" font-family="Times,serif" font-size="14.00">_layout</text>
</g>
<!-- PetsController -->
<g id="node7" class="node"><title>PetsController</title>
<path fill="none" stroke="black" d="M12,-760.5C12,-760.5 83,-760.5 83,-760.5 89,-760.5 95,-766.5 95,-772.5 95,-772.5 95,-961.5 95,-961.5 95,-967.5 89,-973.5 83,-973.5 83,-973.5 12,-973.5 12,-973.5 6,-973.5 0,-967.5 0,-961.5 0,-961.5 0,-772.5 0,-772.5 0,-766.5 6,-760.5 12,-760.5"/>
<text text-anchor="middle" x="47.5" y="-958.3" font-family="Times,serif" font-size="14.00">PetsController</text>
<polyline fill="none" stroke="black" points="0,-950.5 95,-950.5 "/>
<text text-anchor="start" x="8" y="-935.3" font-family="Times,serif" font-size="14.00">create</text>
<text text-anchor="start" x="8" y="-920.3" font-family="Times,serif" font-size="14.00">destroy</text>
<text text-anchor="start" x="8" y="-905.3" font-family="Times,serif" font-size="14.00">edit</text>
<text text-anchor="start" x="8" y="-890.3" font-family="Times,serif" font-size="14.00">index</text>
<text text-anchor="start" x="8" y="-875.3" font-family="Times,serif" font-size="14.00">new</text>
<text text-anchor="start" x="8" y="-860.3" font-family="Times,serif" font-size="14.00">show</text>
<text text-anchor="start" x="8" y="-845.3" font-family="Times,serif" font-size="14.00">update</text>
<polyline fill="none" stroke="black" points="0,-837.5 95,-837.5 "/>
<polyline fill="none" stroke="black" points="0,-813.5 95,-813.5 "/>
<text text-anchor="start" x="8" y="-798.3" font-family="Times,serif" font-size="14.00">_layout</text>
<text text-anchor="start" x="8" y="-783.3" font-family="Times,serif" font-size="14.00">pet_params</text>
<text text-anchor="start" x="8" y="-768.3" font-family="Times,serif" font-size="14.00">set_pet</text>
</g>
<!-- WelcomeController -->
<g id="node8" class="node"><title>WelcomeController</title>
<path fill="none" stroke="black" d="M297,-209.5C297,-209.5 398,-209.5 398,-209.5 404,-209.5 410,-215.5 410,-221.5 410,-221.5 410,-560.5 410,-560.5 410,-566.5 404,-572.5 398,-572.5 398,-572.5 297,-572.5 297,-572.5 291,-572.5 285,-566.5 285,-560.5 285,-560.5 285,-221.5 285,-221.5 285,-215.5 291,-209.5 297,-209.5"/>
<text text-anchor="middle" x="347.5" y="-557.3" font-family="Times,serif" font-size="14.00">WelcomeController</text>
<polyline fill="none" stroke="black" points="285,-549.5 410,-549.5 "/>
<text text-anchor="start" x="293" y="-534.3" font-family="Times,serif" font-size="14.00">adoptado</text>
<text text-anchor="start" x="293" y="-519.3" font-family="Times,serif" font-size="14.00">animalenriesgo</text>
<text text-anchor="start" x="293" y="-504.3" font-family="Times,serif" font-size="14.00">buscaradoptado</text>
<text text-anchor="start" x="293" y="-489.3" font-family="Times,serif" font-size="14.00">buscarencontrado</text>
<text text-anchor="start" x="293" y="-474.3" font-family="Times,serif" font-size="14.00">buscarenriesgo</text>
<text text-anchor="start" x="293" y="-459.3" font-family="Times,serif" font-size="14.00">buscarperdido</text>
<text text-anchor="start" x="293" y="-444.3" font-family="Times,serif" font-size="14.00">ejemploadoptado</text>
<text text-anchor="start" x="293" y="-429.3" font-family="Times,serif" font-size="14.00">ejemploencontrado</text>
<text text-anchor="start" x="293" y="-414.3" font-family="Times,serif" font-size="14.00">ejemploenriesgo</text>
<text text-anchor="start" x="293" y="-399.3" font-family="Times,serif" font-size="14.00">ejemploperdido</text>
<text text-anchor="start" x="293" y="-384.3" font-family="Times,serif" font-size="14.00">encontrado</text>
<text text-anchor="start" x="293" y="-369.3" font-family="Times,serif" font-size="14.00">eventos</text>
<text text-anchor="start" x="293" y="-354.3" font-family="Times,serif" font-size="14.00">index</text>
<text text-anchor="start" x="293" y="-339.3" font-family="Times,serif" font-size="14.00">info</text>
<text text-anchor="start" x="293" y="-324.3" font-family="Times,serif" font-size="14.00">login</text>
<text text-anchor="start" x="293" y="-309.3" font-family="Times,serif" font-size="14.00">notificaciones</text>
<text text-anchor="start" x="293" y="-294.3" font-family="Times,serif" font-size="14.00">perdido</text>
<text text-anchor="start" x="293" y="-279.3" font-family="Times,serif" font-size="14.00">ram</text>
<text text-anchor="start" x="293" y="-264.3" font-family="Times,serif" font-size="14.00">temascreados</text>
<polyline fill="none" stroke="black" points="285,-256.5 410,-256.5 "/>
<polyline fill="none" stroke="black" points="285,-232.5 410,-232.5 "/>
<text text-anchor="start" x="293" y="-217.3" font-family="Times,serif" font-size="14.00">_layout</text>
</g>
<!-- EventsController -->
<g id="node9" class="node"><title>EventsController</title>
<path fill="none" stroke="black" d="M639,-380.5C639,-380.5 724,-380.5 724,-380.5 730,-380.5 736,-386.5 736,-392.5 736,-392.5 736,-581.5 736,-581.5 736,-587.5 730,-593.5 724,-593.5 724,-593.5 639,-593.5 639,-593.5 633,-593.5 627,-587.5 627,-581.5 627,-581.5 627,-392.5 627,-392.5 627,-386.5 633,-380.5 639,-380.5"/>
<text text-anchor="middle" x="681.5" y="-578.3" font-family="Times,serif" font-size="14.00">EventsController</text>
<polyline fill="none" stroke="black" points="627,-570.5 736,-570.5 "/>
<text text-anchor="start" x="635" y="-555.3" font-family="Times,serif" font-size="14.00">create</text>
<text text-anchor="start" x="635" y="-540.3" font-family="Times,serif" font-size="14.00">destroy</text>
<text text-anchor="start" x="635" y="-525.3" font-family="Times,serif" font-size="14.00">edit</text>
<text text-anchor="start" x="635" y="-510.3" font-family="Times,serif" font-size="14.00">index</text>
<text text-anchor="start" x="635" y="-495.3" font-family="Times,serif" font-size="14.00">new</text>
<text text-anchor="start" x="635" y="-480.3" font-family="Times,serif" font-size="14.00">show</text>
<text text-anchor="start" x="635" y="-465.3" font-family="Times,serif" font-size="14.00">update</text>
<polyline fill="none" stroke="black" points="627,-457.5 736,-457.5 "/>
<polyline fill="none" stroke="black" points="627,-433.5 736,-433.5 "/>
<text text-anchor="start" x="635" y="-418.3" font-family="Times,serif" font-size="14.00">_layout</text>
<text text-anchor="start" x="635" y="-403.3" font-family="Times,serif" font-size="14.00">event_params</text>
<text text-anchor="start" x="635" y="-388.3" font-family="Times,serif" font-size="14.00">set_event</text>
</g>
<!-- RacesController -->
<g id="node10" class="node"><title>RacesController</title>
<path fill="none" stroke="black" d="M449,-76.5C449,-76.5 529,-76.5 529,-76.5 535,-76.5 541,-82.5 541,-88.5 541,-88.5 541,-277.5 541,-277.5 541,-283.5 535,-289.5 529,-289.5 529,-289.5 449,-289.5 449,-289.5 443,-289.5 437,-283.5 437,-277.5 437,-277.5 437,-88.5 437,-88.5 437,-82.5 443,-76.5 449,-76.5"/>
<text text-anchor="middle" x="489" y="-274.3" font-family="Times,serif" font-size="14.00">RacesController</text>
<polyline fill="none" stroke="black" points="437,-266.5 541,-266.5 "/>
<text text-anchor="start" x="445" y="-251.3" font-family="Times,serif" font-size="14.00">create</text>
<text text-anchor="start" x="445" y="-236.3" font-family="Times,serif" font-size="14.00">destroy</text>
<text text-anchor="start" x="445" y="-221.3" font-family="Times,serif" font-size="14.00">edit</text>
<text text-anchor="start" x="445" y="-206.3" font-family="Times,serif" font-size="14.00">index</text>
<text text-anchor="start" x="445" y="-191.3" font-family="Times,serif" font-size="14.00">new</text>
<text text-anchor="start" x="445" y="-176.3" font-family="Times,serif" font-size="14.00">show</text>
<text text-anchor="start" x="445" y="-161.3" font-family="Times,serif" font-size="14.00">update</text>
<polyline fill="none" stroke="black" points="437,-153.5 541,-153.5 "/>
<polyline fill="none" stroke="black" points="437,-129.5 541,-129.5 "/>
<text text-anchor="start" x="445" y="-114.3" font-family="Times,serif" font-size="14.00">_layout</text>
<text text-anchor="start" x="445" y="-99.3" font-family="Times,serif" font-size="14.00">race_params</text>
<text text-anchor="start" x="445" y="-84.3" font-family="Times,serif" font-size="14.00">set_race</text>
</g>
<!-- AnimalsController -->
<g id="node11" class="node"><title>AnimalsController</title>
<path fill="none" stroke="black" d="M449,-323.5C449,-323.5 573,-323.5 573,-323.5 579,-323.5 585,-329.5 585,-335.5 585,-335.5 585,-569.5 585,-569.5 585,-575.5 579,-581.5 573,-581.5 573,-581.5 449,-581.5 449,-581.5 443,-581.5 437,-575.5 437,-569.5 437,-569.5 437,-335.5 437,-335.5 437,-329.5 443,-323.5 449,-323.5"/>
<text text-anchor="middle" x="511" y="-566.3" font-family="Times,serif" font-size="14.00">AnimalsController</text>
<polyline fill="none" stroke="black" points="437,-558.5 585,-558.5 "/>
<text text-anchor="start" x="445" y="-543.3" font-family="Times,serif" font-size="14.00">create</text>
<text text-anchor="start" x="445" y="-528.3" font-family="Times,serif" font-size="14.00">destroy</text>
<text text-anchor="start" x="445" y="-513.3" font-family="Times,serif" font-size="14.00">edit</text>
<text text-anchor="start" x="445" y="-498.3" font-family="Times,serif" font-size="14.00">get_drop_down_options</text>
<text text-anchor="start" x="445" y="-483.3" font-family="Times,serif" font-size="14.00">index</text>
<text text-anchor="start" x="445" y="-468.3" font-family="Times,serif" font-size="14.00">new</text>
<text text-anchor="start" x="445" y="-453.3" font-family="Times,serif" font-size="14.00">show</text>
<text text-anchor="start" x="445" y="-438.3" font-family="Times,serif" font-size="14.00">solved</text>
<text text-anchor="start" x="445" y="-423.3" font-family="Times,serif" font-size="14.00">update</text>
<polyline fill="none" stroke="black" points="437,-415.5 585,-415.5 "/>
<polyline fill="none" stroke="black" points="437,-391.5 585,-391.5 "/>
<text text-anchor="start" x="445" y="-376.3" font-family="Times,serif" font-size="14.00">_layout</text>
<text text-anchor="start" x="445" y="-361.3" font-family="Times,serif" font-size="14.00">animal_params</text>
<text text-anchor="start" x="445" y="-346.3" font-family="Times,serif" font-size="14.00">filtering_params</text>
<text text-anchor="start" x="445" y="-331.3" font-family="Times,serif" font-size="14.00">set_animal</text>
</g>
<!-- NotificationsController -->
<g id="node12" class="node"><title>NotificationsController</title>
<path fill="none" stroke="black" d="M183,-0.5C183,-0.5 302,-0.5 302,-0.5 308,-0.5 314,-6.5 314,-12.5 314,-12.5 314,-156.5 314,-156.5 314,-162.5 308,-168.5 302,-168.5 302,-168.5 183,-168.5 183,-168.5 177,-168.5 171,-162.5 171,-156.5 171,-156.5 171,-12.5 171,-12.5 171,-6.5 177,-0.5 183,-0.5"/>
<text text-anchor="middle" x="242.5" y="-153.3" font-family="Times,serif" font-size="14.00">NotificationsController</text>
<polyline fill="none" stroke="black" points="171,-145.5 314,-145.5 "/>
<text text-anchor="start" x="179" y="-130.3" font-family="Times,serif" font-size="14.00">create</text>
<text text-anchor="start" x="179" y="-115.3" font-family="Times,serif" font-size="14.00">destroy</text>
<text text-anchor="start" x="179" y="-100.3" font-family="Times,serif" font-size="14.00">index</text>
<text text-anchor="start" x="179" y="-85.3" font-family="Times,serif" font-size="14.00">show</text>
<polyline fill="none" stroke="black" points="171,-77.5 314,-77.5 "/>
<polyline fill="none" stroke="black" points="171,-53.5 314,-53.5 "/>
<text text-anchor="start" x="179" y="-38.3" font-family="Times,serif" font-size="14.00">_layout</text>
<text text-anchor="start" x="179" y="-23.3" font-family="Times,serif" font-size="14.00">notification_params</text>
<text text-anchor="start" x="179" y="-8.3" font-family="Times,serif" font-size="14.00">set_notification</text>
</g>
<!-- UsersController -->
<g id="node13" class="node"><title>UsersController</title>
<path fill="none" stroke="black" d="M164,-304.5C164,-304.5 243,-304.5 243,-304.5 249,-304.5 255,-310.5 255,-316.5 255,-316.5 255,-550.5 255,-550.5 255,-556.5 249,-562.5 243,-562.5 243,-562.5 164,-562.5 164,-562.5 158,-562.5 152,-556.5 152,-550.5 152,-550.5 152,-316.5 152,-316.5 152,-310.5 158,-304.5 164,-304.5"/>
<text text-anchor="middle" x="203.5" y="-547.3" font-family="Times,serif" font-size="14.00">UsersController</text>
<polyline fill="none" stroke="black" points="152,-539.5 255,-539.5 "/>
<text text-anchor="start" x="160" y="-524.3" font-family="Times,serif" font-size="14.00">all</text>
<text text-anchor="start" x="160" y="-509.3" font-family="Times,serif" font-size="14.00">create</text>
<text text-anchor="start" x="160" y="-494.3" font-family="Times,serif" font-size="14.00">destroy</text>
<text text-anchor="start" x="160" y="-479.3" font-family="Times,serif" font-size="14.00">detailedstats</text>
<text text-anchor="start" x="160" y="-464.3" font-family="Times,serif" font-size="14.00">edit</text>
<text text-anchor="start" x="160" y="-449.3" font-family="Times,serif" font-size="14.00">index</text>
<text text-anchor="start" x="160" y="-434.3" font-family="Times,serif" font-size="14.00">new</text>
<text text-anchor="start" x="160" y="-419.3" font-family="Times,serif" font-size="14.00">show</text>
<text text-anchor="start" x="160" y="-404.3" font-family="Times,serif" font-size="14.00">stats</text>
<text text-anchor="start" x="160" y="-389.3" font-family="Times,serif" font-size="14.00">update</text>
<polyline fill="none" stroke="black" points="152,-381.5 255,-381.5 "/>
<polyline fill="none" stroke="black" points="152,-357.5 255,-357.5 "/>
<text text-anchor="start" x="160" y="-342.3" font-family="Times,serif" font-size="14.00">_layout</text>
<text text-anchor="start" x="160" y="-327.3" font-family="Times,serif" font-size="14.00">set_user</text>
<text text-anchor="start" x="160" y="-312.3" font-family="Times,serif" font-size="14.00">user_params</text>
</g>
<!-- ImagesController -->
<g id="node14" class="node"><title>ImagesController</title>
<path fill="none" stroke="black" d="M31,-57.5C31,-57.5 119,-57.5 119,-57.5 125,-57.5 131,-63.5 131,-69.5 131,-69.5 131,-258.5 131,-258.5 131,-264.5 125,-270.5 119,-270.5 119,-270.5 31,-270.5 31,-270.5 25,-270.5 19,-264.5 19,-258.5 19,-258.5 19,-69.5 19,-69.5 19,-63.5 25,-57.5 31,-57.5"/>
<text text-anchor="middle" x="75" y="-255.3" font-family="Times,serif" font-size="14.00">ImagesController</text>
<polyline fill="none" stroke="black" points="19,-247.5 131,-247.5 "/>
<text text-anchor="start" x="27" y="-232.3" font-family="Times,serif" font-size="14.00">create</text>
<text text-anchor="start" x="27" y="-217.3" font-family="Times,serif" font-size="14.00">destroy</text>
<text text-anchor="start" x="27" y="-202.3" font-family="Times,serif" font-size="14.00">edit</text>
<text text-anchor="start" x="27" y="-187.3" font-family="Times,serif" font-size="14.00">index</text>
<text text-anchor="start" x="27" y="-172.3" font-family="Times,serif" font-size="14.00">new</text>
<text text-anchor="start" x="27" y="-157.3" font-family="Times,serif" font-size="14.00">show</text>
<text text-anchor="start" x="27" y="-142.3" font-family="Times,serif" font-size="14.00">update</text>
<polyline fill="none" stroke="black" points="19,-134.5 131,-134.5 "/>
<polyline fill="none" stroke="black" points="19,-110.5 131,-110.5 "/>
<text text-anchor="start" x="27" y="-95.3" font-family="Times,serif" font-size="14.00">_layout</text>
<text text-anchor="start" x="27" y="-80.3" font-family="Times,serif" font-size="14.00">image_params</text>
<text text-anchor="start" x="27" y="-65.3" font-family="Times,serif" font-size="14.00">set_image</text>
</g>
<!-- AdoptionsController -->
<g id="node15" class="node"><title>AdoptionsController</title>
<path fill="none" stroke="black" d="M639,-133.5C639,-133.5 743,-133.5 743,-133.5 749,-133.5 755,-139.5 755,-145.5 755,-145.5 755,-334.5 755,-334.5 755,-340.5 749,-346.5 743,-346.5 743,-346.5 639,-346.5 639,-346.5 633,-346.5 627,-340.5 627,-334.5 627,-334.5 627,-145.5 627,-145.5 627,-139.5 633,-133.5 639,-133.5"/>
<text text-anchor="middle" x="691" y="-331.3" font-family="Times,serif" font-size="14.00">AdoptionsController</text>
<polyline fill="none" stroke="black" points="627,-323.5 755,-323.5 "/>
<text text-anchor="start" x="635" y="-308.3" font-family="Times,serif" font-size="14.00">create</text>
<text text-anchor="start" x="635" y="-293.3" font-family="Times,serif" font-size="14.00">destroy</text>
<text text-anchor="start" x="635" y="-278.3" font-family="Times,serif" font-size="14.00">edit</text>
<text text-anchor="start" x="635" y="-263.3" font-family="Times,serif" font-size="14.00">index</text>
<text text-anchor="start" x="635" y="-248.3" font-family="Times,serif" font-size="14.00">new</text>
<text text-anchor="start" x="635" y="-233.3" font-family="Times,serif" font-size="14.00">show</text>
<text text-anchor="start" x="635" y="-218.3" font-family="Times,serif" font-size="14.00">update</text>
<polyline fill="none" stroke="black" points="627,-210.5 755,-210.5 "/>
<polyline fill="none" stroke="black" points="627,-186.5 755,-186.5 "/>
<text text-anchor="start" x="635" y="-171.3" font-family="Times,serif" font-size="14.00">_layout</text>
<text text-anchor="start" x="635" y="-156.3" font-family="Times,serif" font-size="14.00">adoption_params</text>
<text text-anchor="start" x="635" y="-141.3" font-family="Times,serif" font-size="14.00">set_adoption</text>
</g>
<!-- ApplicationController -->
<g id="node16" class="node"><title>ApplicationController</title>
<path fill="none" stroke="black" d="M772,-627.5C772,-627.5 942,-627.5 942,-627.5 948,-627.5 954,-633.5 954,-639.5 954,-639.5 954,-722.5 954,-722.5 954,-728.5 948,-734.5 942,-734.5 942,-734.5 772,-734.5 772,-734.5 766,-734.5 760,-728.5 760,-722.5 760,-722.5 760,-639.5 760,-639.5 760,-633.5 766,-627.5 772,-627.5"/>
<text text-anchor="middle" x="857" y="-719.3" font-family="Times,serif" font-size="14.00">ApplicationController</text>
<polyline fill="none" stroke="black" points="760,-711.5 954,-711.5 "/>
<text text-anchor="start" x="768" y="-696.3" font-family="Times,serif" font-size="14.00">after_sign_out_path_for</text>
<text text-anchor="start" x="768" y="-681.3" font-family="Times,serif" font-size="14.00">notify</text>
<polyline fill="none" stroke="black" points="760,-673.5 954,-673.5 "/>
<text text-anchor="start" x="768" y="-658.3" font-family="Times,serif" font-size="14.00">configure_permitted_parameters</text>
<polyline fill="none" stroke="black" points="760,-650.5 954,-650.5 "/>
<text text-anchor="start" x="768" y="-635.3" font-family="Times,serif" font-size="14.00">_layout</text>
</g>
<!-- NavController -->
<g id="node17" class="node"><title>NavController</title>
<path fill="none" stroke="black" d="M12,-627.5C12,-627.5 83,-627.5 83,-627.5 89,-627.5 95,-633.5 95,-639.5 95,-639.5 95,-708.5 95,-708.5 95,-714.5 89,-720.5 83,-720.5 83,-720.5 12,-720.5 12,-720.5 6,-720.5 0,-714.5 0,-708.5 0,-708.5 0,-639.5 0,-639.5 0,-633.5 6,-627.5 12,-627.5"/>
<text text-anchor="middle" x="47.5" y="-705.3" font-family="Times,serif" font-size="14.00">NavController</text>
<polyline fill="none" stroke="black" points="0,-697.5 95,-697.5 "/>
<text text-anchor="start" x="8" y="-682.3" font-family="Times,serif" font-size="14.00">index</text>
<polyline fill="none" stroke="black" points="0,-674.5 95,-674.5 "/>
<polyline fill="none" stroke="black" points="0,-650.5 95,-650.5 "/>
<text text-anchor="start" x="8" y="-635.3" font-family="Times,serif" font-size="14.00">_layout</text>
</g>
</g>
</svg>
