<?xml version="1.0" encoding="UTF-8" standalone="no"?>
<!DOCTYPE svg PUBLIC "-//W3C//DTD SVG 1.1//EN"
 "http://www.w3.org/Graphics/SVG/1.1/DTD/svg11.dtd">
<!-- Generated by graphviz version 2.36.0 (20140111.2315)
 -->
<!-- Title: models_diagram Pages: 1 -->
<svg width="1222pt" height="1394pt"
 viewBox="0.00 0.00 1222.10 1394.00" xmlns="http://www.w3.org/2000/svg" xmlns:xlink="http://www.w3.org/1999/xlink">
<g id="graph0" class="graph" transform="scale(1 1) rotate(0) translate(4 1390)">
<title>models_diagram</title>
<polygon fill="none" stroke="none" points="-4,4 -4,-1390 1218.1,-1390 1218.1,4 -4,4"/>
<!-- _diagram_info -->
<g id="node1" class="node"><title>_diagram_info</title>
<text text-anchor="start" x="278" y="-1356.6" font-family="Times,serif" font-size="13.00">Models diagram</text>
<text text-anchor="start" x="278" y="-1342.6" font-family="Times,serif" font-size="13.00">Date: Jun 26 2017 &#45; 00:26</text>
<text text-anchor="start" x="278" y="-1328.6" font-family="Times,serif" font-size="13.00">Migration version: 20170623043531</text>
<text text-anchor="start" x="278" y="-1314.6" font-family="Times,serif" font-size="13.00">Generated by RailRoady 1.5.3</text>
<text text-anchor="start" x="278" y="-1300.6" font-family="Times,serif" font-size="13.00">http://railroady.prestonlee.com</text>
</g>
<!-- Ability -->
<g id="node2" class="node"><title>Ability</title>
<polygon fill="none" stroke="black" points="502.5,-1309 502.5,-1355 557.5,-1355 557.5,-1309 502.5,-1309"/>
<text text-anchor="middle" x="530" y="-1339.8" font-family="Times,serif" font-size="14.00">Ability</text>
<polyline fill="none" stroke="black" points="502.5,-1332 557.5,-1332 "/>
<text text-anchor="middle" x="530" y="-1316.8" font-family="Times,serif" font-size="14.00"> </text>
</g>
<!-- Adoption -->
<g id="node3" class="node"><title>Adoption</title>
<path fill="none" stroke="black" d="M205,-535C205,-535 313,-535 313,-535 319,-535 325,-541 325,-547 325,-547 325,-779 325,-779 325,-785 319,-791 313,-791 313,-791 205,-791 205,-791 199,-791 193,-785 193,-779 193,-779 193,-547 193,-547 193,-541 199,-535 205,-535"/>
<text text-anchor="middle" x="259" y="-775.8" font-family="Times,serif" font-size="14.00">Adoption</text>
<polyline fill="none" stroke="black" points="193,-768 325,-768 "/>
<text text-anchor="start" x="201" y="-752.8" font-family="Times,serif" font-size="14.00">id :INTEGER</text>
<text text-anchor="start" x="201" y="-737.8" font-family="Times,serif" font-size="14.00">animal_type :varchar</text>
<text text-anchor="start" x="201" y="-722.8" font-family="Times,serif" font-size="14.00">sex :varchar</text>
<text text-anchor="start" x="201" y="-707.8" font-family="Times,serif" font-size="14.00">name :varchar</text>
<text text-anchor="start" x="201" y="-692.8" font-family="Times,serif" font-size="14.00">description :text</text>
<text text-anchor="start" x="201" y="-677.8" font-family="Times,serif" font-size="14.00">lost_on :date</text>
<text text-anchor="start" x="201" y="-662.8" font-family="Times,serif" font-size="14.00">lost_in :text</text>
<text text-anchor="start" x="201" y="-647.8" font-family="Times,serif" font-size="14.00">user_id :integer</text>
<text text-anchor="start" x="201" y="-632.8" font-family="Times,serif" font-size="14.00">race_id :integer</text>
<text text-anchor="start" x="201" y="-617.8" font-family="Times,serif" font-size="14.00">created_at :datetime</text>
<text text-anchor="start" x="201" y="-602.8" font-family="Times,serif" font-size="14.00">updated_at :datetime</text>
<text text-anchor="start" x="201" y="-587.8" font-family="Times,serif" font-size="14.00">animal_state :integer</text>
<text text-anchor="start" x="201" y="-572.8" font-family="Times,serif" font-size="14.00">latitude :float</text>
<text text-anchor="start" x="201" y="-557.8" font-family="Times,serif" font-size="14.00">longitude :float</text>
<text text-anchor="start" x="201" y="-542.8" font-family="Times,serif" font-size="14.00">solved :boolean</text>
</g>
<!-- Notification -->
<g id="node7" class="node"><title>Notification</title>
<path fill="none" stroke="black" d="M393.5,-0.5C393.5,-0.5 500.5,-0.5 500.5,-0.5 506.5,-0.5 512.5,-6.5 512.5,-12.5 512.5,-12.5 512.5,-199.5 512.5,-199.5 512.5,-205.5 506.5,-211.5 500.5,-211.5 500.5,-211.5 393.5,-211.5 393.5,-211.5 387.5,-211.5 381.5,-205.5 381.5,-199.5 381.5,-199.5 381.5,-12.5 381.5,-12.5 381.5,-6.5 387.5,-0.5 393.5,-0.5"/>
<text text-anchor="middle" x="447" y="-196.3" font-family="Times,serif" font-size="14.00">Notification</text>
<polyline fill="none" stroke="black" points="381.5,-188.5 512.5,-188.5 "/>
<text text-anchor="start" x="389.5" y="-173.3" font-family="Times,serif" font-size="14.00">id :INTEGER</text>
<text text-anchor="start" x="389.5" y="-158.3" font-family="Times,serif" font-size="14.00">titulo :varchar</text>
<text text-anchor="start" x="389.5" y="-143.3" font-family="Times,serif" font-size="14.00">mensaje :text</text>
<text text-anchor="start" x="389.5" y="-128.3" font-family="Times,serif" font-size="14.00">url :varchar</text>
<text text-anchor="start" x="389.5" y="-113.3" font-family="Times,serif" font-size="14.00">seen :boolean</text>
<text text-anchor="start" x="389.5" y="-98.3" font-family="Times,serif" font-size="14.00">user_id :integer</text>
<text text-anchor="start" x="389.5" y="-83.3" font-family="Times,serif" font-size="14.00">pic_url :varchar</text>
<text text-anchor="start" x="389.5" y="-68.3" font-family="Times,serif" font-size="14.00">created_at :datetime</text>
<text text-anchor="start" x="389.5" y="-53.3" font-family="Times,serif" font-size="14.00">updated_at :datetime</text>
<text text-anchor="start" x="389.5" y="-38.3" font-family="Times,serif" font-size="14.00">comment_id :integer</text>
<text text-anchor="start" x="389.5" y="-23.3" font-family="Times,serif" font-size="14.00">animal_id :integer</text>
<text text-anchor="start" x="389.5" y="-8.3" font-family="Times,serif" font-size="14.00">pet_id :integer</text>
</g>
<!-- Adoption&#45;&gt;Notification -->
<g id="edge3" class="edge"><title>Adoption&#45;&gt;Notification</title>
<path fill="none" stroke="#e27fe1" d="M238.512,-526.874C231.982,-442.445 235.394,-333.85 278,-248 298.601,-206.49 337.611,-172.665 372.965,-148.56"/>
<ellipse fill="none" stroke="#e27fe1" cx="238.848" cy="-530.98" rx="4" ry="4"/>
<polygon fill="#e27fe1" stroke="#e27fe1" points="373.064,-148.495 383.881,-146.696 377.225,-145.723 381.386,-142.951 381.386,-142.951 381.386,-142.951 377.225,-145.723 378.892,-139.206 373.064,-148.495 373.064,-148.495"/>
</g>
<!-- Image -->
<g id="node13" class="node"><title>Image</title>
<path fill="none" stroke="black" d="M487.5,-249C487.5,-249 638.5,-249 638.5,-249 644.5,-249 650.5,-255 650.5,-261 650.5,-261 650.5,-463 650.5,-463 650.5,-469 644.5,-475 638.5,-475 638.5,-475 487.5,-475 487.5,-475 481.5,-475 475.5,-469 475.5,-463 475.5,-463 475.5,-261 475.5,-261 475.5,-255 481.5,-249 487.5,-249"/>
<text text-anchor="middle" x="563" y="-459.8" font-family="Times,serif" font-size="14.00">Image</text>
<polyline fill="none" stroke="black" points="475.5,-452 650.5,-452 "/>
<text text-anchor="start" x="483.5" y="-436.8" font-family="Times,serif" font-size="14.00">id :INTEGER</text>
<text text-anchor="start" x="483.5" y="-421.8" font-family="Times,serif" font-size="14.00">link :text</text>
<text text-anchor="start" x="483.5" y="-406.8" font-family="Times,serif" font-size="14.00">animal_id :integer</text>
<text text-anchor="start" x="483.5" y="-391.8" font-family="Times,serif" font-size="14.00">pet_id :integer</text>
<text text-anchor="start" x="483.5" y="-376.8" font-family="Times,serif" font-size="14.00">event_id :integer</text>
<text text-anchor="start" x="483.5" y="-361.8" font-family="Times,serif" font-size="14.00">information_id :integer</text>
<text text-anchor="start" x="483.5" y="-346.8" font-family="Times,serif" font-size="14.00">user_id :integer</text>
<text text-anchor="start" x="483.5" y="-331.8" font-family="Times,serif" font-size="14.00">created_at :datetime</text>
<text text-anchor="start" x="483.5" y="-316.8" font-family="Times,serif" font-size="14.00">updated_at :datetime</text>
<text text-anchor="start" x="483.5" y="-301.8" font-family="Times,serif" font-size="14.00">image_file_name :varchar</text>
<text text-anchor="start" x="483.5" y="-286.8" font-family="Times,serif" font-size="14.00">image_content_type :varchar</text>
<text text-anchor="start" x="483.5" y="-271.8" font-family="Times,serif" font-size="14.00">image_file_size :integer</text>
<text text-anchor="start" x="483.5" y="-256.8" font-family="Times,serif" font-size="14.00">image_updated_at :datetime</text>
</g>
<!-- Adoption&#45;&gt;Image -->
<g id="edge2" class="edge"><title>Adoption&#45;&gt;Image</title>
<path fill="none" stroke="#4baa0b" d="M330.309,-557.427C343.3,-541.404 357.395,-525.67 372,-512 393.329,-492.035 403.504,-493.363 427,-476 440.311,-466.163 454.048,-455.457 467.441,-444.684"/>
<ellipse fill="none" stroke="#4baa0b" cx="327.695" cy="-560.696" rx="4.00002" ry="4.00002"/>
<polygon fill="#4baa0b" stroke="#4baa0b" points="467.507,-444.631 478.112,-441.838 471.394,-441.485 475.281,-438.34 475.281,-438.34 475.281,-438.34 471.394,-441.485 472.45,-434.842 467.507,-444.631 467.507,-444.631"/>
</g>
<!-- Comment -->
<g id="node14" class="node"><title>Comment</title>
<path fill="none" stroke="black" d="M299.5,-294C299.5,-294 406.5,-294 406.5,-294 412.5,-294 418.5,-300 418.5,-306 418.5,-306 418.5,-418 418.5,-418 418.5,-424 412.5,-430 406.5,-430 406.5,-430 299.5,-430 299.5,-430 293.5,-430 287.5,-424 287.5,-418 287.5,-418 287.5,-306 287.5,-306 287.5,-300 293.5,-294 299.5,-294"/>
<text text-anchor="middle" x="353" y="-414.8" font-family="Times,serif" font-size="14.00">Comment</text>
<polyline fill="none" stroke="black" points="287.5,-407 418.5,-407 "/>
<text text-anchor="start" x="295.5" y="-391.8" font-family="Times,serif" font-size="14.00">id :INTEGER</text>
<text text-anchor="start" x="295.5" y="-376.8" font-family="Times,serif" font-size="14.00">description :text</text>
<text text-anchor="start" x="295.5" y="-361.8" font-family="Times,serif" font-size="14.00">animal_id :integer</text>
<text text-anchor="start" x="295.5" y="-346.8" font-family="Times,serif" font-size="14.00">pet_id :integer</text>
<text text-anchor="start" x="295.5" y="-331.8" font-family="Times,serif" font-size="14.00">user_id :integer</text>
<text text-anchor="start" x="295.5" y="-316.8" font-family="Times,serif" font-size="14.00">created_at :datetime</text>
<text text-anchor="start" x="295.5" y="-301.8" font-family="Times,serif" font-size="14.00">updated_at :datetime</text>
</g>
<!-- Adoption&#45;&gt;Comment -->
<g id="edge1" class="edge"><title>Adoption&#45;&gt;Comment</title>
<path fill="none" stroke="#025312" d="M301.523,-526.74C310.89,-496.946 320.496,-466.39 328.835,-439.865"/>
<ellipse fill="none" stroke="#025312" cx="300.2" cy="-530.948" rx="4.00001" ry="4.00001"/>
<polygon fill="#025312" stroke="#025312" points="328.848,-439.823 336.14,-431.633 330.348,-435.053 331.847,-430.283 331.847,-430.283 331.847,-430.283 330.348,-435.053 327.555,-428.934 328.848,-439.823 328.848,-439.823"/>
</g>
<!-- Role -->
<g id="node4" class="node"><title>Role</title>
<path fill="none" stroke="black" d="M587.5,-1279C587.5,-1279 694.5,-1279 694.5,-1279 700.5,-1279 706.5,-1285 706.5,-1291 706.5,-1291 706.5,-1373 706.5,-1373 706.5,-1379 700.5,-1385 694.5,-1385 694.5,-1385 587.5,-1385 587.5,-1385 581.5,-1385 575.5,-1379 575.5,-1373 575.5,-1373 575.5,-1291 575.5,-1291 575.5,-1285 581.5,-1279 587.5,-1279"/>
<text text-anchor="middle" x="641" y="-1369.8" font-family="Times,serif" font-size="14.00">Role</text>
<polyline fill="none" stroke="black" points="575.5,-1362 706.5,-1362 "/>
<text text-anchor="start" x="583.5" y="-1346.8" font-family="Times,serif" font-size="14.00">id :INTEGER</text>
<text text-anchor="start" x="583.5" y="-1331.8" font-family="Times,serif" font-size="14.00">name :varchar</text>
<text text-anchor="start" x="583.5" y="-1316.8" font-family="Times,serif" font-size="14.00">description :varchar</text>
<text text-anchor="start" x="583.5" y="-1301.8" font-family="Times,serif" font-size="14.00">created_at :datetime</text>
<text text-anchor="start" x="583.5" y="-1286.8" font-family="Times,serif" font-size="14.00">updated_at :datetime</text>
</g>
<!-- User -->
<g id="node6" class="node"><title>User</title>
<path fill="none" stroke="black" d="M553,-850.5C553,-850.5 729,-850.5 729,-850.5 735,-850.5 741,-856.5 741,-862.5 741,-862.5 741,-1229.5 741,-1229.5 741,-1235.5 735,-1241.5 729,-1241.5 729,-1241.5 553,-1241.5 553,-1241.5 547,-1241.5 541,-1235.5 541,-1229.5 541,-1229.5 541,-862.5 541,-862.5 541,-856.5 547,-850.5 553,-850.5"/>
<text text-anchor="middle" x="641" y="-1226.3" font-family="Times,serif" font-size="14.00">User</text>
<polyline fill="none" stroke="black" points="541,-1218.5 741,-1218.5 "/>
<text text-anchor="start" x="549" y="-1203.3" font-family="Times,serif" font-size="14.00">id :INTEGER</text>
<text text-anchor="start" x="549" y="-1188.3" font-family="Times,serif" font-size="14.00">name :varchar</text>
<text text-anchor="start" x="549" y="-1173.3" font-family="Times,serif" font-size="14.00">address :varchar</text>
<text text-anchor="start" x="549" y="-1158.3" font-family="Times,serif" font-size="14.00">phone :varchar</text>
<text text-anchor="start" x="549" y="-1143.3" font-family="Times,serif" font-size="14.00">sex :varchar</text>
<text text-anchor="start" x="549" y="-1128.3" font-family="Times,serif" font-size="14.00">role_id :integer</text>
<text text-anchor="start" x="549" y="-1113.3" font-family="Times,serif" font-size="14.00">created_at :datetime</text>
<text text-anchor="start" x="549" y="-1098.3" font-family="Times,serif" font-size="14.00">updated_at :datetime</text>
<text text-anchor="start" x="549" y="-1083.3" font-family="Times,serif" font-size="14.00">email :varchar</text>
<text text-anchor="start" x="549" y="-1068.3" font-family="Times,serif" font-size="14.00">encrypted_password :varchar</text>
<text text-anchor="start" x="549" y="-1053.3" font-family="Times,serif" font-size="14.00">reset_password_token :varchar</text>
<text text-anchor="start" x="549" y="-1038.3" font-family="Times,serif" font-size="14.00">reset_password_sent_at :datetime</text>
<text text-anchor="start" x="549" y="-1023.3" font-family="Times,serif" font-size="14.00">remember_created_at :datetime</text>
<text text-anchor="start" x="549" y="-1008.3" font-family="Times,serif" font-size="14.00">sign_in_count :integer</text>
<text text-anchor="start" x="549" y="-993.3" font-family="Times,serif" font-size="14.00">current_sign_in_at :datetime</text>
<text text-anchor="start" x="549" y="-978.3" font-family="Times,serif" font-size="14.00">last_sign_in_at :datetime</text>
<text text-anchor="start" x="549" y="-963.3" font-family="Times,serif" font-size="14.00">current_sign_in_ip :varchar</text>
<text text-anchor="start" x="549" y="-948.3" font-family="Times,serif" font-size="14.00">last_sign_in_ip :varchar</text>
<text text-anchor="start" x="549" y="-933.3" font-family="Times,serif" font-size="14.00">avatar_file_name :varchar</text>
<text text-anchor="start" x="549" y="-918.3" font-family="Times,serif" font-size="14.00">avatar_content_type :varchar</text>
<text text-anchor="start" x="549" y="-903.3" font-family="Times,serif" font-size="14.00">avatar_file_size :integer</text>
<text text-anchor="start" x="549" y="-888.3" font-family="Times,serif" font-size="14.00">avatar_updated_at :datetime</text>
<text text-anchor="start" x="549" y="-873.3" font-family="Times,serif" font-size="14.00">latitude :float</text>
<text text-anchor="start" x="549" y="-858.3" font-family="Times,serif" font-size="14.00">longitude :float</text>
</g>
<!-- Role&#45;&gt;User -->
<g id="edge4" class="edge"><title>Role&#45;&gt;User</title>
<path fill="none" stroke="#528155" d="M641,-1270.77C641,-1264.81 641,-1258.56 641,-1252.09"/>
<ellipse fill="none" stroke="#528155" cx="641" cy="-1274.91" rx="4" ry="4"/>
<polygon fill="#528155" stroke="#528155" points="641,-1251.75 645.5,-1241.75 641,-1246.75 641,-1241.75 641,-1241.75 641,-1241.75 641,-1246.75 636.5,-1241.75 641,-1251.75 641,-1251.75"/>
</g>
<!-- Animal -->
<g id="node5" class="node"><title>Animal</title>
<path fill="none" stroke="black" d="M393.5,-512.5C393.5,-512.5 544.5,-512.5 544.5,-512.5 550.5,-512.5 556.5,-518.5 556.5,-524.5 556.5,-524.5 556.5,-801.5 556.5,-801.5 556.5,-807.5 550.5,-813.5 544.5,-813.5 544.5,-813.5 393.5,-813.5 393.5,-813.5 387.5,-813.5 381.5,-807.5 381.5,-801.5 381.5,-801.5 381.5,-524.5 381.5,-524.5 381.5,-518.5 387.5,-512.5 393.5,-512.5"/>
<text text-anchor="middle" x="469" y="-798.3" font-family="Times,serif" font-size="14.00">Animal</text>
<polyline fill="none" stroke="black" points="381.5,-790.5 556.5,-790.5 "/>
<text text-anchor="start" x="389.5" y="-775.3" font-family="Times,serif" font-size="14.00">id :INTEGER</text>
<text text-anchor="start" x="389.5" y="-760.3" font-family="Times,serif" font-size="14.00">animal_type :varchar</text>
<text text-anchor="start" x="389.5" y="-745.3" font-family="Times,serif" font-size="14.00">age :integer</text>
<text text-anchor="start" x="389.5" y="-730.3" font-family="Times,serif" font-size="14.00">sex :varchar</text>
<text text-anchor="start" x="389.5" y="-715.3" font-family="Times,serif" font-size="14.00">location :text</text>
<text text-anchor="start" x="389.5" y="-700.3" font-family="Times,serif" font-size="14.00">description :text</text>
<text text-anchor="start" x="389.5" y="-685.3" font-family="Times,serif" font-size="14.00">user_id :integer</text>
<text text-anchor="start" x="389.5" y="-670.3" font-family="Times,serif" font-size="14.00">race_id :integer</text>
<text text-anchor="start" x="389.5" y="-655.3" font-family="Times,serif" font-size="14.00">created_at :datetime</text>
<text text-anchor="start" x="389.5" y="-640.3" font-family="Times,serif" font-size="14.00">updated_at :datetime</text>
<text text-anchor="start" x="389.5" y="-625.3" font-family="Times,serif" font-size="14.00">image_file_name :varchar</text>
<text text-anchor="start" x="389.5" y="-610.3" font-family="Times,serif" font-size="14.00">image_content_type :varchar</text>
<text text-anchor="start" x="389.5" y="-595.3" font-family="Times,serif" font-size="14.00">image_file_size :integer</text>
<text text-anchor="start" x="389.5" y="-580.3" font-family="Times,serif" font-size="14.00">image_updated_at :datetime</text>
<text text-anchor="start" x="389.5" y="-565.3" font-family="Times,serif" font-size="14.00">animal_state :integer</text>
<text text-anchor="start" x="389.5" y="-550.3" font-family="Times,serif" font-size="14.00">latitude :float</text>
<text text-anchor="start" x="389.5" y="-535.3" font-family="Times,serif" font-size="14.00">longitude :float</text>
<text text-anchor="start" x="389.5" y="-520.3" font-family="Times,serif" font-size="14.00">solved :boolean</text>
</g>
<!-- Animal&#45;&gt;Notification -->
<g id="edge7" class="edge"><title>Animal&#45;&gt;Notification</title>
<path fill="none" stroke="#471cd2" d="M462.739,-504.041C459.177,-414.188 454.796,-303.663 451.561,-222.061"/>
<ellipse fill="none" stroke="#471cd2" cx="462.902" cy="-508.178" rx="4" ry="4"/>
<polygon fill="#471cd2" stroke="#471cd2" points="451.549,-221.745 455.649,-211.575 451.35,-216.749 451.152,-211.753 451.152,-211.753 451.152,-211.753 451.35,-216.749 446.656,-211.931 451.549,-221.745 451.549,-221.745"/>
</g>
<!-- Animal&#45;&gt;Image -->
<g id="edge6" class="edge"><title>Animal&#45;&gt;Image</title>
<path fill="none" stroke="#cbee46" d="M518.601,-504.228C520.614,-497.823 522.621,-491.439 524.607,-485.122"/>
<ellipse fill="none" stroke="#cbee46" cx="517.337" cy="-508.246" rx="4.00001" ry="4.00001"/>
<polygon fill="#cbee46" stroke="#cbee46" points="524.709,-484.798 532.001,-476.608 526.209,-480.028 527.708,-475.258 527.708,-475.258 527.708,-475.258 526.209,-480.028 523.415,-473.908 524.709,-484.798 524.709,-484.798"/>
</g>
<!-- Animal&#45;&gt;Comment -->
<g id="edge5" class="edge"><title>Animal&#45;&gt;Comment</title>
<path fill="none" stroke="#4035ce" d="M407.83,-504.329C399.131,-481.906 390.527,-459.73 382.805,-439.825"/>
<ellipse fill="none" stroke="#4035ce" cx="409.383" cy="-508.333" rx="4.00001" ry="4.00001"/>
<polygon fill="#4035ce" stroke="#4035ce" points="382.705,-439.568 383.284,-428.617 380.897,-434.906 379.088,-430.245 379.088,-430.245 379.088,-430.245 380.897,-434.906 374.893,-431.872 382.705,-439.568 382.705,-439.568"/>
</g>
<!-- User&#45;&gt;Adoption -->
<g id="edge16" class="edge"><title>User&#45;&gt;Adoption</title>
<path fill="none" stroke="#9a8c0b" d="M534.764,-931.243C503.622,-902.128 468.165,-872.676 432,-850 394.449,-826.455 372.172,-843.394 339,-814 333.806,-809.397 328.89,-804.374 324.247,-799.047"/>
<ellipse fill="none" stroke="#9a8c0b" cx="538.023" cy="-934.315" rx="4.00002" ry="4.00002"/>
<polygon fill="#9a8c0b" stroke="#9a8c0b" points="324.003,-798.751 321.108,-788.174 320.82,-794.895 317.637,-791.039 317.637,-791.039 317.637,-791.039 320.82,-794.895 314.167,-793.903 324.003,-798.751 324.003,-798.751"/>
</g>
<!-- User&#45;&gt;Animal -->
<g id="edge9" class="edge"><title>User&#45;&gt;Animal</title>
<path fill="none" stroke="#f2589d" d="M549.735,-842.836C546.771,-836.272 543.816,-829.726 540.883,-823.229"/>
<ellipse fill="none" stroke="#f2589d" cx="551.465" cy="-846.669" rx="4.00002" ry="4.00002"/>
<polygon fill="#f2589d" stroke="#f2589d" points="540.719,-822.865 540.706,-811.899 538.661,-818.308 536.604,-813.751 536.604,-813.751 536.604,-813.751 538.661,-818.308 532.503,-815.602 540.719,-822.865 540.719,-822.865"/>
</g>
<!-- User&#45;&gt;Notification -->
<g id="edge14" class="edge"><title>User&#45;&gt;Notification</title>
<path fill="none" stroke="#d5bebf" d="M749.141,-1031.74C873.312,-1010.1 1071.6,-954.392 1163,-814 1236.23,-701.514 1225.12,-630.981 1163,-512 1032.75,-262.543 678.805,-157.16 522.698,-121.853"/>
<ellipse fill="none" stroke="#d5bebf" cx="745.015" cy="-1032.45" rx="4.00001" ry="4.00001"/>
<polygon fill="#d5bebf" stroke="#d5bebf" points="522.467,-121.802 513.684,-115.236 517.587,-120.715 512.706,-119.628 512.706,-119.628 512.706,-119.628 517.587,-120.715 511.728,-124.021 522.467,-121.802 522.467,-121.802"/>
</g>
<!-- Information -->
<g id="node8" class="node"><title>Information</title>
<path fill="none" stroke="black" d="M886.5,-602.5C886.5,-602.5 993.5,-602.5 993.5,-602.5 999.5,-602.5 1005.5,-608.5 1005.5,-614.5 1005.5,-614.5 1005.5,-711.5 1005.5,-711.5 1005.5,-717.5 999.5,-723.5 993.5,-723.5 993.5,-723.5 886.5,-723.5 886.5,-723.5 880.5,-723.5 874.5,-717.5 874.5,-711.5 874.5,-711.5 874.5,-614.5 874.5,-614.5 874.5,-608.5 880.5,-602.5 886.5,-602.5"/>
<text text-anchor="middle" x="940" y="-708.3" font-family="Times,serif" font-size="14.00">Information</text>
<polyline fill="none" stroke="black" points="874.5,-700.5 1005.5,-700.5 "/>
<text text-anchor="start" x="882.5" y="-685.3" font-family="Times,serif" font-size="14.00">id :INTEGER</text>
<text text-anchor="start" x="882.5" y="-670.3" font-family="Times,serif" font-size="14.00">title :text</text>
<text text-anchor="start" x="882.5" y="-655.3" font-family="Times,serif" font-size="14.00">description :text</text>
<text text-anchor="start" x="882.5" y="-640.3" font-family="Times,serif" font-size="14.00">user_id :integer</text>
<text text-anchor="start" x="882.5" y="-625.3" font-family="Times,serif" font-size="14.00">created_at :datetime</text>
<text text-anchor="start" x="882.5" y="-610.3" font-family="Times,serif" font-size="14.00">updated_at :datetime</text>
</g>
<!-- User&#45;&gt;Information -->
<g id="edge11" class="edge"><title>User&#45;&gt;Information</title>
<path fill="none" stroke="#83d072" d="M747.084,-949.004C787.023,-909.595 830.967,-861.993 865,-814 882.702,-789.037 898.511,-759.287 910.997,-732.888"/>
<ellipse fill="none" stroke="#83d072" cx="744.076" cy="-951.956" rx="4.00002" ry="4.00002"/>
<polygon fill="#83d072" stroke="#83d072" points="911.052,-732.769 919.353,-725.603 913.163,-728.236 915.273,-723.704 915.273,-723.704 915.273,-723.704 913.163,-728.236 911.193,-721.804 911.052,-732.769 911.052,-732.769"/>
</g>
<!-- Pet -->
<g id="node10" class="node"><title>Pet</title>
<path fill="none" stroke="black" d="M587,-535C587,-535 695,-535 695,-535 701,-535 707,-541 707,-547 707,-547 707,-779 707,-779 707,-785 701,-791 695,-791 695,-791 587,-791 587,-791 581,-791 575,-785 575,-779 575,-779 575,-547 575,-547 575,-541 581,-535 587,-535"/>
<text text-anchor="middle" x="641" y="-775.8" font-family="Times,serif" font-size="14.00">Pet</text>
<polyline fill="none" stroke="black" points="575,-768 707,-768 "/>
<text text-anchor="start" x="583" y="-752.8" font-family="Times,serif" font-size="14.00">id :INTEGER</text>
<text text-anchor="start" x="583" y="-737.8" font-family="Times,serif" font-size="14.00">animal_type :varchar</text>
<text text-anchor="start" x="583" y="-722.8" font-family="Times,serif" font-size="14.00">sex :varchar</text>
<text text-anchor="start" x="583" y="-707.8" font-family="Times,serif" font-size="14.00">name :varchar</text>
<text text-anchor="start" x="583" y="-692.8" font-family="Times,serif" font-size="14.00">description :text</text>
<text text-anchor="start" x="583" y="-677.8" font-family="Times,serif" font-size="14.00">lost_on :date</text>
<text text-anchor="start" x="583" y="-662.8" font-family="Times,serif" font-size="14.00">lost_in :text</text>
<text text-anchor="start" x="583" y="-647.8" font-family="Times,serif" font-size="14.00">user_id :integer</text>
<text text-anchor="start" x="583" y="-632.8" font-family="Times,serif" font-size="14.00">race_id :integer</text>
<text text-anchor="start" x="583" y="-617.8" font-family="Times,serif" font-size="14.00">created_at :datetime</text>
<text text-anchor="start" x="583" y="-602.8" font-family="Times,serif" font-size="14.00">updated_at :datetime</text>
<text text-anchor="start" x="583" y="-587.8" font-family="Times,serif" font-size="14.00">animal_state :integer</text>
<text text-anchor="start" x="583" y="-572.8" font-family="Times,serif" font-size="14.00">latitude :float</text>
<text text-anchor="start" x="583" y="-557.8" font-family="Times,serif" font-size="14.00">longitude :float</text>
<text text-anchor="start" x="583" y="-542.8" font-family="Times,serif" font-size="14.00">solved :boolean</text>
</g>
<!-- User&#45;&gt;Pet -->
<g id="edge12" class="edge"><title>User&#45;&gt;Pet</title>
<path fill="none" stroke="#979afd" d="M641,-841.854C641,-828.135 641,-814.504 641,-801.247"/>
<ellipse fill="none" stroke="#979afd" cx="641" cy="-846.315" rx="4" ry="4"/>
<polygon fill="#979afd" stroke="#979afd" points="641,-801.187 645.5,-791.187 641,-796.187 641,-791.187 641,-791.187 641,-791.187 641,-796.187 636.5,-791.187 641,-801.187 641,-801.187"/>
</g>
<!-- Risk -->
<g id="node11" class="node"><title>Risk</title>
<path fill="none" stroke="black" d="M11.5,-512.5C11.5,-512.5 162.5,-512.5 162.5,-512.5 168.5,-512.5 174.5,-518.5 174.5,-524.5 174.5,-524.5 174.5,-801.5 174.5,-801.5 174.5,-807.5 168.5,-813.5 162.5,-813.5 162.5,-813.5 11.5,-813.5 11.5,-813.5 5.5,-813.5 -0.5,-807.5 -0.5,-801.5 -0.5,-801.5 -0.5,-524.5 -0.5,-524.5 -0.5,-518.5 5.5,-512.5 11.5,-512.5"/>
<text text-anchor="middle" x="87" y="-798.3" font-family="Times,serif" font-size="14.00">Risk</text>
<polyline fill="none" stroke="black" points="-0.5,-790.5 174.5,-790.5 "/>
<text text-anchor="start" x="7.5" y="-775.3" font-family="Times,serif" font-size="14.00">id :INTEGER</text>
<text text-anchor="start" x="7.5" y="-760.3" font-family="Times,serif" font-size="14.00">animal_type :varchar</text>
<text text-anchor="start" x="7.5" y="-745.3" font-family="Times,serif" font-size="14.00">age :integer</text>
<text text-anchor="start" x="7.5" y="-730.3" font-family="Times,serif" font-size="14.00">sex :varchar</text>
<text text-anchor="start" x="7.5" y="-715.3" font-family="Times,serif" font-size="14.00">location :text</text>
<text text-anchor="start" x="7.5" y="-700.3" font-family="Times,serif" font-size="14.00">description :text</text>
<text text-anchor="start" x="7.5" y="-685.3" font-family="Times,serif" font-size="14.00">user_id :integer</text>
<text text-anchor="start" x="7.5" y="-670.3" font-family="Times,serif" font-size="14.00">race_id :integer</text>
<text text-anchor="start" x="7.5" y="-655.3" font-family="Times,serif" font-size="14.00">created_at :datetime</text>
<text text-anchor="start" x="7.5" y="-640.3" font-family="Times,serif" font-size="14.00">updated_at :datetime</text>
<text text-anchor="start" x="7.5" y="-625.3" font-family="Times,serif" font-size="14.00">image_file_name :varchar</text>
<text text-anchor="start" x="7.5" y="-610.3" font-family="Times,serif" font-size="14.00">image_content_type :varchar</text>
<text text-anchor="start" x="7.5" y="-595.3" font-family="Times,serif" font-size="14.00">image_file_size :integer</text>
<text text-anchor="start" x="7.5" y="-580.3" font-family="Times,serif" font-size="14.00">image_updated_at :datetime</text>
<text text-anchor="start" x="7.5" y="-565.3" font-family="Times,serif" font-size="14.00">animal_state :integer</text>
<text text-anchor="start" x="7.5" y="-550.3" font-family="Times,serif" font-size="14.00">latitude :float</text>
<text text-anchor="start" x="7.5" y="-535.3" font-family="Times,serif" font-size="14.00">longitude :float</text>
<text text-anchor="start" x="7.5" y="-520.3" font-family="Times,serif" font-size="14.00">solved :boolean</text>
</g>
<!-- User&#45;&gt;Risk -->
<g id="edge15" class="edge"><title>User&#45;&gt;Risk</title>
<path fill="none" stroke="#08a186" d="M534.761,-922.824C504.33,-894.716 469.225,-867.865 432,-850 331.588,-801.81 277.741,-874.146 184,-814 183.706,-813.812 183.413,-813.622 183.121,-813.431"/>
<ellipse fill="none" stroke="#08a186" cx="537.864" cy="-925.727" rx="4.00002" ry="4.00002"/>
<polygon fill="#08a186" stroke="#08a186" points="183.003,-813.347 177.446,-803.894 178.924,-810.456 174.844,-807.565 174.844,-807.565 174.844,-807.565 178.924,-810.456 172.242,-811.237 183.003,-813.347 183.003,-813.347"/>
</g>
<!-- Device -->
<g id="node12" class="node"><title>Device</title>
<path fill="none" stroke="black" d="M1035.5,-587.5C1035.5,-587.5 1142.5,-587.5 1142.5,-587.5 1148.5,-587.5 1154.5,-593.5 1154.5,-599.5 1154.5,-599.5 1154.5,-726.5 1154.5,-726.5 1154.5,-732.5 1148.5,-738.5 1142.5,-738.5 1142.5,-738.5 1035.5,-738.5 1035.5,-738.5 1029.5,-738.5 1023.5,-732.5 1023.5,-726.5 1023.5,-726.5 1023.5,-599.5 1023.5,-599.5 1023.5,-593.5 1029.5,-587.5 1035.5,-587.5"/>
<text text-anchor="middle" x="1089" y="-723.3" font-family="Times,serif" font-size="14.00">Device</text>
<polyline fill="none" stroke="black" points="1023.5,-715.5 1154.5,-715.5 "/>
<text text-anchor="start" x="1031.5" y="-700.3" font-family="Times,serif" font-size="14.00">id :INTEGER</text>
<text text-anchor="start" x="1031.5" y="-685.3" font-family="Times,serif" font-size="14.00">user_agent :varchar</text>
<text text-anchor="start" x="1031.5" y="-670.3" font-family="Times,serif" font-size="14.00">endpoint :varchar</text>
<text text-anchor="start" x="1031.5" y="-655.3" font-family="Times,serif" font-size="14.00">p256dh :varchar</text>
<text text-anchor="start" x="1031.5" y="-640.3" font-family="Times,serif" font-size="14.00">auth :varchar</text>
<text text-anchor="start" x="1031.5" y="-625.3" font-family="Times,serif" font-size="14.00">user_id :integer</text>
<text text-anchor="start" x="1031.5" y="-610.3" font-family="Times,serif" font-size="14.00">created_at :datetime</text>
<text text-anchor="start" x="1031.5" y="-595.3" font-family="Times,serif" font-size="14.00">updated_at :datetime</text>
</g>
<!-- User&#45;&gt;Device -->
<g id="edge13" class="edge"><title>User&#45;&gt;Device</title>
<path fill="none" stroke="#94bad0" d="M748.36,-998.475C829.574,-958.943 939.468,-895.63 1014,-814 1031.42,-794.923 1045.77,-771.053 1057.09,-748.002"/>
<ellipse fill="none" stroke="#94bad0" cx="744.689" cy="-1000.25" rx="4.00002" ry="4.00002"/>
<polygon fill="#94bad0" stroke="#94bad0" points="1057.14,-747.907 1065.5,-740.816 1059.29,-743.393 1061.44,-738.88 1061.44,-738.88 1061.44,-738.88 1059.29,-743.393 1057.38,-736.943 1057.14,-747.907 1057.14,-747.907"/>
</g>
<!-- User&#45;&gt;Comment -->
<g id="edge10" class="edge"><title>User&#45;&gt;Comment</title>
<path fill="none" stroke="#50b5b5" d="M534.962,-937.968C503.067,-908.045 467.17,-876.492 432,-850 407.16,-831.289 387.888,-840.733 372,-814 335.746,-752.999 341.276,-552.611 347.617,-440.57"/>
<ellipse fill="none" stroke="#50b5b5" cx="537.959" cy="-940.792" rx="4.00002" ry="4.00002"/>
<polygon fill="#50b5b5" stroke="#50b5b5" points="347.631,-440.325 352.704,-430.603 347.921,-435.333 348.212,-430.342 348.212,-430.342 348.212,-430.342 347.921,-435.333 343.719,-430.08 347.631,-440.325 347.631,-440.325"/>
</g>
<!-- Event -->
<g id="node15" class="node"><title>Event</title>
<path fill="none" stroke="black" d="M737.5,-572.5C737.5,-572.5 844.5,-572.5 844.5,-572.5 850.5,-572.5 856.5,-578.5 856.5,-584.5 856.5,-584.5 856.5,-741.5 856.5,-741.5 856.5,-747.5 850.5,-753.5 844.5,-753.5 844.5,-753.5 737.5,-753.5 737.5,-753.5 731.5,-753.5 725.5,-747.5 725.5,-741.5 725.5,-741.5 725.5,-584.5 725.5,-584.5 725.5,-578.5 731.5,-572.5 737.5,-572.5"/>
<text text-anchor="middle" x="791" y="-738.3" font-family="Times,serif" font-size="14.00">Event</text>
<polyline fill="none" stroke="black" points="725.5,-730.5 856.5,-730.5 "/>
<text text-anchor="start" x="733.5" y="-715.3" font-family="Times,serif" font-size="14.00">id :INTEGER</text>
<text text-anchor="start" x="733.5" y="-700.3" font-family="Times,serif" font-size="14.00">title :text</text>
<text text-anchor="start" x="733.5" y="-685.3" font-family="Times,serif" font-size="14.00">description :text</text>
<text text-anchor="start" x="733.5" y="-670.3" font-family="Times,serif" font-size="14.00">date_event :date</text>
<text text-anchor="start" x="733.5" y="-655.3" font-family="Times,serif" font-size="14.00">location :text</text>
<text text-anchor="start" x="733.5" y="-640.3" font-family="Times,serif" font-size="14.00">user_id :integer</text>
<text text-anchor="start" x="733.5" y="-625.3" font-family="Times,serif" font-size="14.00">created_at :datetime</text>
<text text-anchor="start" x="733.5" y="-610.3" font-family="Times,serif" font-size="14.00">updated_at :datetime</text>
<text text-anchor="start" x="733.5" y="-595.3" font-family="Times,serif" font-size="14.00">latitude :float</text>
<text text-anchor="start" x="733.5" y="-580.3" font-family="Times,serif" font-size="14.00">longitude :float</text>
</g>
<!-- User&#45;&gt;Event -->
<g id="edge8" class="edge"><title>User&#45;&gt;Event</title>
<path fill="none" stroke="#921bd0" d="M720.602,-842.811C731.485,-815.169 742.238,-787.856 751.94,-763.213"/>
<ellipse fill="none" stroke="#921bd0" cx="719.113" cy="-846.593" rx="4.00001" ry="4.00001"/>
<polygon fill="#921bd0" stroke="#921bd0" points="751.942,-763.208 759.792,-755.552 753.773,-758.556 755.605,-753.903 755.605,-753.903 755.605,-753.903 753.773,-758.556 751.418,-752.255 751.942,-763.208 751.942,-763.208"/>
</g>
<!-- Information&#45;&gt;Notification -->
<g id="edge18" class="edge"><title>Information&#45;&gt;Notification</title>
<path fill="none" stroke="#a0c8d0" d="M913.129,-594.74C874.848,-505.917 797.186,-348.98 690,-248 640.601,-201.461 573.112,-163.857 521.793,-139.225"/>
<ellipse fill="none" stroke="#a0c8d0" cx="914.803" cy="-598.652" rx="4.00002" ry="4.00002"/>
<polygon fill="#a0c8d0" stroke="#a0c8d0" points="521.767,-139.213 514.659,-130.863 517.249,-137.071 512.731,-134.929 512.731,-134.929 512.731,-134.929 517.249,-137.071 510.803,-138.995 521.767,-139.213 521.767,-139.213"/>
</g>
<!-- Information&#45;&gt;Image -->
<g id="edge17" class="edge"><title>Information&#45;&gt;Image</title>
<path fill="none" stroke="#e2afbd" d="M917.448,-594.834C905.362,-566.578 888.118,-534.995 865,-512 834.044,-481.208 736.407,-435.626 660.436,-402.995"/>
<ellipse fill="none" stroke="#e2afbd" cx="919.028" cy="-598.628" rx="4.00002" ry="4.00002"/>
<polygon fill="#e2afbd" stroke="#e2afbd" points="660.009,-402.812 652.584,-394.743 655.412,-400.846 650.814,-398.881 650.814,-398.881 650.814,-398.881 655.412,-400.846 649.045,-403.019 660.009,-402.812 660.009,-402.812"/>
</g>
<!-- Race -->
<g id="node9" class="node"><title>Race</title>
<path fill="none" stroke="black" d="M304.5,-993C304.5,-993 411.5,-993 411.5,-993 417.5,-993 423.5,-999 423.5,-1005 423.5,-1005 423.5,-1087 423.5,-1087 423.5,-1093 417.5,-1099 411.5,-1099 411.5,-1099 304.5,-1099 304.5,-1099 298.5,-1099 292.5,-1093 292.5,-1087 292.5,-1087 292.5,-1005 292.5,-1005 292.5,-999 298.5,-993 304.5,-993"/>
<text text-anchor="middle" x="358" y="-1083.8" font-family="Times,serif" font-size="14.00">Race</text>
<polyline fill="none" stroke="black" points="292.5,-1076 423.5,-1076 "/>
<text text-anchor="start" x="300.5" y="-1060.8" font-family="Times,serif" font-size="14.00">id :INTEGER</text>
<text text-anchor="start" x="300.5" y="-1045.8" font-family="Times,serif" font-size="14.00">name :varchar</text>
<text text-anchor="start" x="300.5" y="-1030.8" font-family="Times,serif" font-size="14.00">description :varchar</text>
<text text-anchor="start" x="300.5" y="-1015.8" font-family="Times,serif" font-size="14.00">created_at :datetime</text>
<text text-anchor="start" x="300.5" y="-1000.8" font-family="Times,serif" font-size="14.00">updated_at :datetime</text>
</g>
<!-- Race&#45;&gt;Adoption -->
<g id="edge21" class="edge"><title>Race&#45;&gt;Adoption</title>
<path fill="none" stroke="#66b7bf" d="M342.422,-985.049C329.65,-935.897 311.073,-864.404 294.69,-801.353"/>
<ellipse fill="none" stroke="#66b7bf" cx="343.436" cy="-988.951" rx="4.00001" ry="4.00001"/>
<polygon fill="#66b7bf" stroke="#66b7bf" points="294.596,-800.99 296.436,-790.18 293.338,-796.151 292.081,-791.311 292.081,-791.311 292.081,-791.311 293.338,-796.151 287.726,-792.443 294.596,-800.99 294.596,-800.99"/>
</g>
<!-- Race&#45;&gt;Animal -->
<g id="edge19" class="edge"><title>Race&#45;&gt;Animal</title>
<path fill="none" stroke="#195551" d="M375.468,-985.043C388.132,-941.575 405.886,-880.636 422.527,-823.516"/>
<ellipse fill="none" stroke="#195551" cx="374.32" cy="-988.982" rx="4.00001" ry="4.00001"/>
<polygon fill="#195551" stroke="#195551" points="422.606,-823.246 429.723,-814.903 424.004,-818.445 425.403,-813.645 425.403,-813.645 425.403,-813.645 424.004,-818.445 421.082,-812.386 422.606,-823.246 422.606,-823.246"/>
</g>
<!-- Race&#45;&gt;Pet -->
<g id="edge20" class="edge"><title>Race&#45;&gt;Pet</title>
<path fill="none" stroke="#89b258" d="M409.77,-986.572C444.268,-947.738 490.689,-895.677 532,-850 546.559,-833.902 552.647,-831.847 565,-814 568.167,-809.424 571.284,-804.698 574.341,-799.87"/>
<ellipse fill="none" stroke="#89b258" cx="406.994" cy="-989.697" rx="4.00002" ry="4.00002"/>
<polygon fill="#89b258" stroke="#89b258" points="574.517,-799.584 583.603,-793.444 577.146,-795.331 579.775,-791.078 579.775,-791.078 579.775,-791.078 577.146,-795.331 575.948,-788.712 574.517,-799.584 574.517,-799.584"/>
</g>
<!-- Race&#45;&gt;Risk -->
<g id="edge22" class="edge"><title>Race&#45;&gt;Risk</title>
<path fill="none" stroke="#92b6a1" d="M311.873,-986.199C276.098,-940.02 225.744,-873.751 184,-814 182.834,-812.332 181.665,-810.65 180.492,-808.958"/>
<ellipse fill="none" stroke="#92b6a1" cx="314.37" cy="-989.418" rx="4.00002" ry="4.00002"/>
<polygon fill="#92b6a1" stroke="#92b6a1" points="180.278,-808.646 178.316,-797.857 177.444,-804.527 174.609,-800.408 174.609,-800.408 174.609,-800.408 177.444,-804.527 170.902,-802.96 180.278,-808.646 180.278,-808.646"/>
</g>
<!-- Pet&#45;&gt;Notification -->
<g id="edge25" class="edge"><title>Pet&#45;&gt;Notification</title>
<path fill="none" stroke="#5a0566" d="M680.46,-527.1C697.487,-442.129 704.475,-332.859 659,-248 630.118,-194.103 570.546,-157.283 521.885,-134.822"/>
<ellipse fill="none" stroke="#5a0566" cx="679.644" cy="-531.067" rx="4.00001" ry="4.00001"/>
<polygon fill="#5a0566" stroke="#5a0566" points="521.745,-134.759 514.47,-126.553 517.184,-132.708 512.624,-130.657 512.624,-130.657 512.624,-130.657 517.184,-132.708 510.779,-134.761 521.745,-134.759 521.745,-134.759"/>
</g>
<!-- Pet&#45;&gt;Image -->
<g id="edge24" class="edge"><title>Pet&#45;&gt;Image</title>
<path fill="none" stroke="#7e79bc" d="M605.753,-526.886C602.144,-513.052 598.492,-499.052 594.922,-485.366"/>
<ellipse fill="none" stroke="#7e79bc" cx="606.798" cy="-530.893" rx="4.00001" ry="4.00001"/>
<polygon fill="#7e79bc" stroke="#7e79bc" points="594.863,-485.139 596.693,-474.327 593.6,-480.301 592.338,-475.463 592.338,-475.463 592.338,-475.463 593.6,-480.301 587.984,-476.599 594.863,-485.139 594.863,-485.139"/>
</g>
<!-- Pet&#45;&gt;Comment -->
<g id="edge23" class="edge"><title>Pet&#45;&gt;Comment</title>
<path fill="none" stroke="#f671c6" d="M580.757,-528.34C575.854,-522.484 570.607,-516.987 565,-512 530.328,-481.162 506.152,-500.904 467,-476 449.925,-465.139 433.364,-451.348 418.4,-437.162"/>
<ellipse fill="none" stroke="#f671c6" cx="583.445" cy="-531.702" rx="4.00002" ry="4.00002"/>
<polygon fill="#f671c6" stroke="#f671c6" points="418.371,-437.134 414.317,-426.944 414.779,-433.655 411.187,-430.177 411.187,-430.177 411.187,-430.177 414.779,-433.655 408.056,-433.41 418.371,-437.134 418.371,-437.134"/>
</g>
<!-- Risk&#45;&gt;Notification -->
<g id="edge28" class="edge"><title>Risk&#45;&gt;Notification</title>
<path fill="none" stroke="#ab1c65" d="M116.628,-504.15C138.134,-421.46 173.945,-322.246 232,-248 268.861,-200.858 326.077,-164.423 372.22,-140.409"/>
<ellipse fill="none" stroke="#ab1c65" cx="115.584" cy="-508.225" rx="4.00001" ry="4.00001"/>
<polygon fill="#ab1c65" stroke="#ab1c65" points="372.388,-140.323 383.34,-139.779 376.84,-138.048 381.292,-135.772 381.292,-135.772 381.292,-135.772 376.84,-138.048 379.244,-131.765 372.388,-140.323 372.388,-140.323"/>
</g>
<!-- Risk&#45;&gt;Image -->
<g id="edge27" class="edge"><title>Risk&#45;&gt;Image</title>
<path fill="none" stroke="#5a075d" d="M181.379,-513.733C182.246,-513.144 183.12,-512.567 184,-512 275.804,-452.907 327.318,-520.537 427,-476 440.795,-469.837 454.312,-461.866 467.149,-453.011"/>
<ellipse fill="none" stroke="#5a075d" cx="178.095" cy="-516.105" rx="4.00002" ry="4.00002"/>
<polygon fill="#5a075d" stroke="#5a075d" points="467.338,-452.877 478.094,-450.74 471.41,-449.976 475.483,-447.075 475.483,-447.075 475.483,-447.075 471.41,-449.976 472.872,-443.41 467.338,-452.877 467.338,-452.877"/>
</g>
<!-- Risk&#45;&gt;Comment -->
<g id="edge26" class="edge"><title>Risk&#45;&gt;Comment</title>
<path fill="none" stroke="#428968" d="M179.897,-516.84C181.259,-515.207 182.627,-513.593 184,-512 212.478,-478.943 248.225,-446.405 279.499,-420.209"/>
<ellipse fill="none" stroke="#428968" cx="177.203" cy="-520.131" rx="4.00002" ry="4.00002"/>
<polygon fill="#428968" stroke="#428968" points="279.655,-420.08 290.223,-417.151 283.501,-416.885 287.347,-413.69 287.347,-413.69 287.347,-413.69 283.501,-416.885 284.471,-410.228 279.655,-420.08 279.655,-420.08"/>
</g>
<!-- Comment&#45;&gt;Notification -->
<g id="edge29" class="edge"><title>Comment&#45;&gt;Notification</title>
<path fill="none" stroke="#a99268" d="M380.699,-286.154C388.234,-265.792 396.571,-243.265 404.717,-221.254"/>
<ellipse fill="none" stroke="#a99268" cx="379.209" cy="-290.181" rx="4.00001" ry="4.00001"/>
<polygon fill="#a99268" stroke="#a99268" points="404.723,-221.239 412.414,-213.422 406.458,-216.55 408.193,-211.86 408.193,-211.86 408.193,-211.86 406.458,-216.55 403.973,-210.299 404.723,-221.239 404.723,-221.239"/>
</g>
<!-- Event&#45;&gt;Image -->
<g id="edge30" class="edge"><title>Event&#45;&gt;Image</title>
<path fill="none" stroke="#60c4fb" d="M748.51,-565.018C738.862,-546.753 727.906,-528.29 716,-512 699.071,-488.838 678.399,-466.065 657.791,-445.562"/>
<ellipse fill="none" stroke="#60c4fb" cx="750.437" cy="-568.727" rx="4.00002" ry="4.00002"/>
<polygon fill="#60c4fb" stroke="#60c4fb" points="657.644,-445.417 653.666,-435.198 654.078,-441.913 650.511,-438.408 650.511,-438.408 650.511,-438.408 654.078,-441.913 647.357,-441.618 657.644,-445.417 657.644,-445.417"/>
</g>
</g>
</svg>
