<?xml version="1.0" encoding="UTF-8" standalone="no"?>
<!DOCTYPE svg PUBLIC "-//W3C//DTD SVG 1.1//EN"
 "http://www.w3.org/Graphics/SVG/1.1/DTD/svg11.dtd">
<!-- Generated by graphviz version 2.36.0 (20140111.2315)
 -->
<!-- Title: models_diagram Pages: 1 -->
<svg width="682pt" height="374pt"
 viewBox="0.00 0.00 681.51 374.00" xmlns="http://www.w3.org/2000/svg" xmlns:xlink="http://www.w3.org/1999/xlink">
<g id="graph0" class="graph" transform="scale(1 1) rotate(0) translate(4 370)">
<title>models_diagram</title>
<polygon fill="none" stroke="none" points="-4,4 -4,-370 677.506,-370 677.506,4 -4,4"/>
<!-- _diagram_info -->
<g id="node1" class="node"><title>_diagram_info</title>
<text text-anchor="start" x="12" y="-351.6" font-family="Times,serif" font-size="13.00">Models diagram</text>
<text text-anchor="start" x="12" y="-337.6" font-family="Times,serif" font-size="13.00">Date: Jun 26 2017 &#45; 00:26</text>
<text text-anchor="start" x="12" y="-323.6" font-family="Times,serif" font-size="13.00">Migration version: 20170623043531</text>
<text text-anchor="start" x="12" y="-309.6" font-family="Times,serif" font-size="13.00">Generated by RailRoady 1.5.3</text>
<text text-anchor="start" x="12" y="-295.6" font-family="Times,serif" font-size="13.00">http://railroady.prestonlee.com</text>
</g>
<!-- Ability -->
<g id="node2" class="node"><title>Ability</title>
<polygon fill="none" stroke="black" points="291.25,-345 236.75,-345 236.75,-309 291.25,-309 291.25,-345"/>
<text text-anchor="middle" x="264" y="-323.3" font-family="Times,serif" font-size="14.00">Ability</text>
</g>
<!-- Adoption -->
<g id="node3" class="node"><title>Adoption</title>
<ellipse fill="none" stroke="black" cx="116" cy="-162" rx="44.2946" ry="18"/>
<text text-anchor="middle" x="116" y="-158.3" font-family="Times,serif" font-size="14.00">Adoption</text>
</g>
<!-- Notification -->
<g id="node7" class="node"><title>Notification</title>
<ellipse fill="none" stroke="black" cx="262" cy="-18" rx="52.9443" ry="18"/>
<text text-anchor="middle" x="262" y="-14.3" font-family="Times,serif" font-size="14.00">Notification</text>
</g>
<!-- Adoption&#45;&gt;Notification -->
<g id="edge3" class="edge"><title>Adoption&#45;&gt;Notification</title>
<path fill="none" stroke="#1156bc" d="M114.67,-135.815C114.969,-116.359 118.438,-89.83 133,-72 151.062,-49.8842 179.86,-36.897 205.668,-29.3213"/>
<ellipse fill="none" stroke="#1156bc" cx="114.695" cy="-139.936" rx="4" ry="4"/>
<polygon fill="#1156bc" stroke="#1156bc" points="205.736,-29.3029 216.567,-31.0169 210.56,-27.989 215.385,-26.675 215.385,-26.675 215.385,-26.675 210.56,-27.989 214.202,-22.3332 205.736,-29.3029 205.736,-29.3029"/>
</g>
<!-- Image -->
<g id="node13" class="node"><title>Image</title>
<ellipse fill="none" stroke="black" cx="323" cy="-90" rx="33.2209" ry="18"/>
<text text-anchor="middle" x="323" y="-86.3" font-family="Times,serif" font-size="14.00">Image</text>
</g>
<!-- Adoption&#45;&gt;Image -->
<g id="edge2" class="edge"><title>Adoption&#45;&gt;Image</title>
<path fill="none" stroke="#921586" d="M156.464,-147.316C194.02,-134.616 249.461,-115.868 285.899,-103.546"/>
<ellipse fill="none" stroke="#921586" cx="152.589" cy="-148.627" rx="4.00001" ry="4.00001"/>
<polygon fill="#921586" stroke="#921586" points="286.169,-103.455 297.084,-104.514 290.906,-101.853 295.642,-100.251 295.642,-100.251 295.642,-100.251 290.906,-101.853 294.201,-95.9886 286.169,-103.455 286.169,-103.455"/>
</g>
<!-- Comment -->
<g id="node14" class="node"><title>Comment</title>
<ellipse fill="none" stroke="black" cx="188" cy="-90" rx="46.2191" ry="18"/>
<text text-anchor="middle" x="188" y="-86.3" font-family="Times,serif" font-size="14.00">Comment</text>
</g>
<!-- Adoption&#45;&gt;Comment -->
<g id="edge1" class="edge"><title>Adoption&#45;&gt;Comment</title>
<path fill="none" stroke="#e611f9" d="M138.34,-139.281C146.468,-131.378 155.688,-122.414 163.958,-114.374"/>
<ellipse fill="none" stroke="#e611f9" cx="135.206" cy="-142.328" rx="4.00002" ry="4.00002"/>
<polygon fill="#e611f9" stroke="#e611f9" points="164.057,-114.278 174.364,-110.533 167.642,-110.792 171.227,-107.307 171.227,-107.307 171.227,-107.307 167.642,-110.792 168.09,-104.081 164.057,-114.278 164.057,-114.278"/>
</g>
<!-- Role -->
<g id="node4" class="node"><title>Role</title>
<ellipse fill="none" stroke="black" cx="337" cy="-327" rx="26.949" ry="18"/>
<text text-anchor="middle" x="337" y="-323.3" font-family="Times,serif" font-size="14.00">Role</text>
</g>
<!-- User -->
<g id="node6" class="node"><title>User</title>
<ellipse fill="none" stroke="black" cx="337" cy="-234" rx="26.949" ry="18"/>
<text text-anchor="middle" x="337" y="-230.3" font-family="Times,serif" font-size="14.00">User</text>
</g>
<!-- Role&#45;&gt;User -->
<g id="edge4" class="edge"><title>Role&#45;&gt;User</title>
<path fill="none" stroke="#ec504c" d="M337,-300.729C337,-288.725 337,-274.362 337,-262.129"/>
<ellipse fill="none" stroke="#ec504c" cx="337" cy="-304.884" rx="4" ry="4"/>
<polygon fill="#ec504c" stroke="#ec504c" points="337,-262.04 341.5,-252.04 337,-257.04 337,-252.04 337,-252.04 337,-252.04 337,-257.04 332.5,-252.04 337,-262.04 337,-262.04"/>
</g>
<!-- Animal -->
<g id="node5" class="node"><title>Animal</title>
<ellipse fill="none" stroke="black" cx="254" cy="-162" rx="37.5442" ry="18"/>
<text text-anchor="middle" x="254" y="-158.3" font-family="Times,serif" font-size="14.00">Animal</text>
</g>
<!-- Animal&#45;&gt;Notification -->
<g id="edge7" class="edge"><title>Animal&#45;&gt;Notification</title>
<path fill="none" stroke="#a5f661" d="M255.433,-135.558C256.848,-110.444 259.005,-72.164 260.457,-46.3932"/>
<ellipse fill="none" stroke="#a5f661" cx="255.19" cy="-139.878" rx="4" ry="4"/>
<polygon fill="#a5f661" stroke="#a5f661" points="260.469,-46.1734 265.524,-36.4424 260.75,-41.1813 261.032,-36.1893 261.032,-36.1893 261.032,-36.1893 260.75,-41.1813 256.539,-35.9361 260.469,-46.1734 260.469,-46.1734"/>
</g>
<!-- Animal&#45;&gt;Image -->
<g id="edge6" class="edge"><title>Animal&#45;&gt;Image</title>
<path fill="none" stroke="#fa9c4b" d="M274.944,-139.753C283.032,-131.547 292.303,-122.141 300.531,-113.795"/>
<ellipse fill="none" stroke="#fa9c4b" cx="272.121" cy="-142.616" rx="4.00002" ry="4.00002"/>
<polygon fill="#fa9c4b" stroke="#fa9c4b" points="300.709,-113.614 310.934,-109.651 304.219,-110.053 307.729,-106.492 307.729,-106.492 307.729,-106.492 304.219,-110.053 304.525,-103.333 300.709,-113.614 300.709,-113.614"/>
</g>
<!-- Animal&#45;&gt;Comment -->
<g id="edge5" class="edge"><title>Animal&#45;&gt;Comment</title>
<path fill="none" stroke="#ed5b79" d="M233.522,-139.281C226.223,-131.539 217.964,-122.78 210.504,-114.868"/>
<ellipse fill="none" stroke="#ed5b79" cx="236.28" cy="-142.206" rx="4.00002" ry="4.00002"/>
<polygon fill="#ed5b79" stroke="#ed5b79" points="210.235,-114.583 206.649,-104.22 206.805,-110.945 203.375,-107.307 203.375,-107.307 203.375,-107.307 206.805,-110.945 200.101,-110.394 210.235,-114.583 210.235,-114.583"/>
</g>
<!-- User&#45;&gt;Adoption -->
<g id="edge16" class="edge"><title>User&#45;&gt;Adoption</title>
<path fill="none" stroke="#a591fa" d="M305.083,-222.89C266.726,-210.741 202.19,-190.3 159.348,-176.73"/>
<ellipse fill="none" stroke="#a591fa" cx="309.115" cy="-224.168" rx="4.00001" ry="4.00001"/>
<polygon fill="#a591fa" stroke="#a591fa" points="159.287,-176.711 151.113,-169.401 154.521,-175.201 149.754,-173.691 149.754,-173.691 149.754,-173.691 154.521,-175.201 148.395,-177.981 159.287,-176.711 159.287,-176.711"/>
</g>
<!-- User&#45;&gt;Animal -->
<g id="edge9" class="edge"><title>User&#45;&gt;Animal</title>
<path fill="none" stroke="#453061" d="M314.329,-213.88C303.556,-204.795 290.635,-193.897 279.519,-184.522"/>
<ellipse fill="none" stroke="#453061" cx="317.544" cy="-216.591" rx="4.00002" ry="4.00002"/>
<polygon fill="#453061" stroke="#453061" points="279.445,-184.46 274.702,-174.573 275.623,-181.236 271.801,-178.013 271.801,-178.013 271.801,-178.013 275.623,-181.236 268.9,-181.453 279.445,-184.46 279.445,-184.46"/>
</g>
<!-- User&#45;&gt;Notification -->
<g id="edge14" class="edge"><title>User&#45;&gt;Notification</title>
<path fill="none" stroke="#df7ba1" d="M372.745,-232.811C450.005,-231.565 628.613,-223.892 666,-180 676.375,-167.82 675.496,-156.878 666,-144 624.454,-87.6556 420.62,-45.8918 319.338,-28.2519"/>
<ellipse fill="none" stroke="#df7ba1" cx="368.278" cy="-232.873" rx="4" ry="4"/>
<polygon fill="#df7ba1" stroke="#df7ba1" points="319.131,-28.2164 310.04,-22.0854 314.204,-27.3683 309.276,-26.5202 309.276,-26.5202 309.276,-26.5202 314.204,-27.3683 308.513,-30.955 319.131,-28.2164 319.131,-28.2164"/>
</g>
<!-- Information -->
<g id="node8" class="node"><title>Information</title>
<ellipse fill="none" stroke="black" cx="515" cy="-162" rx="52.9443" ry="18"/>
<text text-anchor="middle" x="515" y="-158.3" font-family="Times,serif" font-size="14.00">Information</text>
</g>
<!-- User&#45;&gt;Information -->
<g id="edge11" class="edge"><title>User&#45;&gt;Information</title>
<path fill="none" stroke="#92da0d" d="M367.571,-220.978C396.332,-209.667 439.68,-192.62 471.937,-179.935"/>
<ellipse fill="none" stroke="#92da0d" cx="363.628" cy="-222.528" rx="4.00001" ry="4.00001"/>
<polygon fill="#92da0d" stroke="#92da0d" points="472.257,-179.809 483.21,-180.337 476.91,-177.979 481.563,-176.149 481.563,-176.149 481.563,-176.149 476.91,-177.979 479.916,-171.962 472.257,-179.809 472.257,-179.809"/>
</g>
<!-- Pet -->
<g id="node10" class="node"><title>Pet</title>
<ellipse fill="none" stroke="black" cx="337" cy="-162" rx="27" ry="18"/>
<text text-anchor="middle" x="337" y="-158.3" font-family="Times,serif" font-size="14.00">Pet</text>
</g>
<!-- User&#45;&gt;Pet -->
<g id="edge12" class="edge"><title>User&#45;&gt;Pet</title>
<path fill="none" stroke="#efc9dd" d="M337,-207.64C337,-202.063 337,-196.132 337,-190.476"/>
<ellipse fill="none" stroke="#efc9dd" cx="337" cy="-211.697" rx="4" ry="4"/>
<polygon fill="#efc9dd" stroke="#efc9dd" points="337,-190.104 341.5,-180.104 337,-185.104 337,-180.104 337,-180.104 337,-180.104 337,-185.104 332.5,-180.104 337,-190.104 337,-190.104"/>
</g>
<!-- Risk -->
<g id="node11" class="node"><title>Risk</title>
<ellipse fill="none" stroke="black" cx="27" cy="-162" rx="27" ry="18"/>
<text text-anchor="middle" x="27" y="-158.3" font-family="Times,serif" font-size="14.00">Risk</text>
</g>
<!-- User&#45;&gt;Risk -->
<g id="edge15" class="edge"><title>User&#45;&gt;Risk</title>
<path fill="none" stroke="#a9787f" d="M302.835,-227.489C239.729,-217.128 107.292,-194.488 63,-180 61.0785,-179.371 59.1261,-178.665 57.1749,-177.906"/>
<ellipse fill="none" stroke="#a9787f" cx="306.954" cy="-228.163" rx="4.00001" ry="4.00001"/>
<polygon fill="#a9787f" stroke="#a9787f" points="56.7712,-177.733 49.35,-169.66 52.1749,-175.765 47.5786,-173.796 47.5786,-173.796 47.5786,-173.796 52.1749,-175.765 45.8071,-177.933 56.7712,-177.733 56.7712,-177.733"/>
</g>
<!-- Device -->
<g id="node12" class="node"><title>Device</title>
<ellipse fill="none" stroke="black" cx="622" cy="-162" rx="35.6194" ry="18"/>
<text text-anchor="middle" x="622" y="-158.3" font-family="Times,serif" font-size="14.00">Device</text>
</g>
<!-- User&#45;&gt;Device -->
<g id="edge13" class="edge"><title>User&#45;&gt;Device</title>
<path fill="none" stroke="#8038e6" d="M370.874,-227.111C417.71,-218.61 504.66,-201.53 577,-180 579.777,-179.174 582.627,-178.259 585.48,-177.295"/>
<ellipse fill="none" stroke="#8038e6" cx="366.82" cy="-227.841" rx="4.00001" ry="4.00001"/>
<polygon fill="#8038e6" stroke="#8038e6" points="585.663,-177.23 596.593,-178.128 590.376,-175.559 595.088,-173.887 595.088,-173.887 595.088,-173.887 590.376,-175.559 593.583,-169.646 585.663,-177.23 585.663,-177.23"/>
</g>
<!-- User&#45;&gt;Comment -->
<g id="edge10" class="edge"><title>User&#45;&gt;Comment</title>
<path fill="none" stroke="#1f8c56" d="M302.487,-228.064C272.755,-221.958 230.954,-208.613 207,-180 192.69,-162.907 188.382,-137.621 187.398,-118.365"/>
<ellipse fill="none" stroke="#1f8c56" cx="306.6" cy="-228.85" rx="4.00001" ry="4.00001"/>
<polygon fill="#1f8c56" stroke="#1f8c56" points="187.392,-118.102 191.65,-107.997 187.272,-113.103 187.152,-108.105 187.152,-108.105 187.152,-108.105 187.272,-113.103 182.653,-108.213 187.392,-118.102 187.392,-118.102"/>
</g>
<!-- Event -->
<g id="node15" class="node"><title>Event</title>
<ellipse fill="none" stroke="black" cx="413" cy="-162" rx="31.2965" ry="18"/>
<text text-anchor="middle" x="413" y="-158.3" font-family="Times,serif" font-size="14.00">Event</text>
</g>
<!-- User&#45;&gt;Event -->
<g id="edge8" class="edge"><title>User&#45;&gt;Event</title>
<path fill="none" stroke="#d6d129" d="M358.506,-213.192C368.197,-204.266 379.663,-193.705 389.571,-184.579"/>
<ellipse fill="none" stroke="#d6d129" cx="355.322" cy="-216.125" rx="4.00002" ry="4.00002"/>
<polygon fill="#d6d129" stroke="#d6d129" points="389.764,-184.401 400.169,-180.936 393.442,-181.014 397.12,-177.626 397.12,-177.626 397.12,-177.626 393.442,-181.014 394.071,-174.316 389.764,-184.401 389.764,-184.401"/>
</g>
<!-- Information&#45;&gt;Notification -->
<g id="edge18" class="edge"><title>Information&#45;&gt;Notification</title>
<path fill="none" stroke="#0c7c6e" d="M487.138,-140.496C460.615,-121.466 419.192,-92.9955 381,-72 356.462,-58.5105 327.824,-45.6719 304.791,-36.01"/>
<ellipse fill="none" stroke="#0c7c6e" cx="490.635" cy="-143.019" rx="4.00002" ry="4.00002"/>
<polygon fill="#0c7c6e" stroke="#0c7c6e" points="304.529,-35.9014 297.015,-27.9142 299.91,-33.9862 295.292,-32.071 295.292,-32.071 295.292,-32.071 299.91,-33.9862 293.568,-36.2279 304.529,-35.9014 304.529,-35.9014"/>
</g>
<!-- Information&#45;&gt;Image -->
<g id="edge17" class="edge"><title>Information&#45;&gt;Image</title>
<path fill="none" stroke="#a0bce9" d="M472.49,-145.502C438.533,-133.121 391.459,-115.959 359.263,-104.221"/>
<ellipse fill="none" stroke="#a0bce9" cx="476.472" cy="-146.953" rx="4.00001" ry="4.00001"/>
<polygon fill="#a0bce9" stroke="#a0bce9" points="359.175,-104.189 351.321,-96.5356 354.477,-102.476 349.78,-100.763 349.78,-100.763 349.78,-100.763 354.477,-102.476 348.238,-104.991 359.175,-104.189 359.175,-104.189"/>
</g>
<!-- Race -->
<g id="node9" class="node"><title>Race</title>
<ellipse fill="none" stroke="black" cx="185" cy="-234" rx="28.3955" ry="18"/>
<text text-anchor="middle" x="185" y="-230.3" font-family="Times,serif" font-size="14.00">Race</text>
</g>
<!-- Race&#45;&gt;Adoption -->
<g id="edge21" class="edge"><title>Race&#45;&gt;Adoption</title>
<path fill="none" stroke="#88ef8c" d="M164.529,-212.232C156.584,-204.172 147.443,-194.899 139.252,-186.589"/>
<ellipse fill="none" stroke="#88ef8c" cx="167.559" cy="-215.306" rx="4.00002" ry="4.00002"/>
<polygon fill="#88ef8c" stroke="#88ef8c" points="139.078,-186.412 135.263,-176.131 135.568,-182.851 132.058,-179.29 132.058,-179.29 132.058,-179.29 135.568,-182.851 128.853,-182.449 139.078,-186.412 139.078,-186.412"/>
</g>
<!-- Race&#45;&gt;Animal -->
<g id="edge19" class="edge"><title>Race&#45;&gt;Animal</title>
<path fill="none" stroke="#37e151" d="M205.262,-212.444C213.455,-204.132 222.948,-194.502 231.367,-185.961"/>
<ellipse fill="none" stroke="#37e151" cx="202.441" cy="-215.306" rx="4.00002" ry="4.00002"/>
<polygon fill="#37e151" stroke="#37e151" points="231.409,-185.918 241.634,-181.956 234.919,-182.358 238.429,-178.797 238.429,-178.797 238.429,-178.797 234.919,-182.358 235.224,-175.638 231.409,-185.918 231.409,-185.918"/>
</g>
<!-- Race&#45;&gt;Pet -->
<g id="edge20" class="edge"><title>Race&#45;&gt;Pet</title>
<path fill="none" stroke="#457351" d="M214.987,-219.19C241.37,-207.04 279.615,-189.427 306.229,-177.171"/>
<ellipse fill="none" stroke="#457351" cx="211.061" cy="-220.998" rx="4.00002" ry="4.00002"/>
<polygon fill="#457351" stroke="#457351" points="306.381,-177.101 317.346,-177.005 310.923,-175.009 315.464,-172.918 315.464,-172.918 315.464,-172.918 310.923,-175.009 313.582,-168.83 306.381,-177.101 306.381,-177.101"/>
</g>
<!-- Race&#45;&gt;Risk -->
<g id="edge22" class="edge"><title>Race&#45;&gt;Risk</title>
<path fill="none" stroke="#073716" d="M154.34,-219.996C129.596,-209.425 93.9368,-194.02 63,-180 61.2058,-179.187 59.3649,-178.344 57.5099,-177.488"/>
<ellipse fill="none" stroke="#073716" cx="158.291" cy="-221.681" rx="4.00002" ry="4.00002"/>
<polygon fill="#073716" stroke="#073716" points="57.332,-177.405 50.171,-169.1 52.8005,-175.292 48.2691,-173.179 48.2691,-173.179 48.2691,-173.179 52.8005,-175.292 46.3671,-177.257 57.332,-177.405 57.332,-177.405"/>
</g>
<!-- Pet&#45;&gt;Notification -->
<g id="edge25" class="edge"><title>Pet&#45;&gt;Notification</title>
<path fill="none" stroke="#a80209" d="M353.916,-138.558C365.854,-119.761 377.66,-92.7527 365,-72 353.569,-53.2628 333.164,-40.869 313.514,-32.8153"/>
<ellipse fill="none" stroke="#a80209" cx="351.439" cy="-142.252" rx="4.00002" ry="4.00002"/>
<polygon fill="#a80209" stroke="#a80209" points="313.323,-32.743 305.565,-24.9932 308.647,-30.9723 303.971,-29.2016 303.971,-29.2016 303.971,-29.2016 308.647,-30.9723 302.377,-33.41 313.323,-32.743 313.323,-32.743"/>
</g>
<!-- Pet&#45;&gt;Image -->
<g id="edge24" class="edge"><title>Pet&#45;&gt;Image</title>
<path fill="none" stroke="#cfa083" d="M331.997,-135.987C330.85,-130.249 329.624,-124.121 328.459,-118.293"/>
<ellipse fill="none" stroke="#cfa083" cx="332.826" cy="-140.133" rx="4.00001" ry="4.00001"/>
<polygon fill="#cfa083" stroke="#cfa083" points="328.416,-118.081 330.868,-107.393 327.436,-113.178 326.455,-108.275 326.455,-108.275 326.455,-108.275 327.436,-113.178 322.042,-109.158 328.416,-118.081 328.416,-118.081"/>
</g>
<!-- Pet&#45;&gt;Comment -->
<g id="edge23" class="edge"><title>Pet&#45;&gt;Comment</title>
<path fill="none" stroke="#c219ea" d="M308.21,-147.475C284.655,-136.408 251.163,-120.674 225.511,-108.623"/>
<ellipse fill="none" stroke="#c219ea" cx="312.032" cy="-149.27" rx="4.00002" ry="4.00002"/>
<polygon fill="#c219ea" stroke="#c219ea" points="225.499,-108.617 218.361,-100.292 220.973,-106.491 216.448,-104.365 216.448,-104.365 216.448,-104.365 220.973,-106.491 214.534,-108.438 225.499,-108.617 225.499,-108.617"/>
</g>
<!-- Risk&#45;&gt;Notification -->
<g id="edge28" class="edge"><title>Risk&#45;&gt;Notification</title>
<path fill="none" stroke="#006587" d="M43.3896,-138.957C59.2372,-119.015 84.9223,-90.0819 113,-72 142.346,-53.1016 179.29,-39.9027 209.049,-31.4031"/>
<ellipse fill="none" stroke="#006587" cx="40.864" cy="-142.193" rx="4.00002" ry="4.00002"/>
<polygon fill="#006587" stroke="#006587" points="209.205,-31.3602 220.042,-33.0372 214.025,-30.0298 218.845,-28.6994 218.845,-28.6994 218.845,-28.6994 214.025,-30.0298 217.647,-24.3616 209.205,-31.3602 209.205,-31.3602"/>
</g>
<!-- Risk&#45;&gt;Image -->
<g id="edge27" class="edge"><title>Risk&#45;&gt;Image</title>
<path fill="none" stroke="#d5a8a0" d="M55.2312,-146.887C57.8256,-145.829 60.4406,-144.846 63,-144 140.461,-118.391 163.097,-124.479 243,-108 255.948,-105.33 270.06,-102.353 282.777,-99.6458"/>
<ellipse fill="none" stroke="#d5a8a0" cx="51.2518" cy="-148.626" rx="4.00002" ry="4.00002"/>
<polygon fill="#d5a8a0" stroke="#d5a8a0" points="282.847,-99.6308 293.566,-101.945 287.737,-98.5873 292.627,-97.5437 292.627,-97.5437 292.627,-97.5437 287.737,-98.5873 291.688,-93.1428 282.847,-99.6308 282.847,-99.6308"/>
</g>
<!-- Risk&#45;&gt;Comment -->
<g id="edge26" class="edge"><title>Risk&#45;&gt;Comment</title>
<path fill="none" stroke="#153239" d="M55.6411,-147.348C58.1243,-146.203 60.603,-145.074 63,-144 91.2971,-131.326 123.517,-117.684 148.157,-107.414"/>
<ellipse fill="none" stroke="#153239" cx="51.8807" cy="-149.1" rx="4.00002" ry="4.00002"/>
<polygon fill="#153239" stroke="#153239" points="148.308,-107.351 159.269,-107.668 152.925,-105.432 157.542,-103.513 157.542,-103.513 157.542,-103.513 152.925,-105.432 155.814,-99.3576 148.308,-107.351 148.308,-107.351"/>
</g>
<!-- Comment&#45;&gt;Notification -->
<g id="edge29" class="edge"><title>Comment&#45;&gt;Notification</title>
<path fill="none" stroke="#fd4523" d="M210.698,-67.5286C219.253,-59.436 229.014,-50.2028 237.709,-41.9779"/>
<ellipse fill="none" stroke="#fd4523" cx="207.698" cy="-70.3671" rx="4.00002" ry="4.00002"/>
<polygon fill="#fd4523" stroke="#fd4523" points="237.754,-41.9356 248.111,-38.3327 241.386,-38.4995 245.019,-35.0635 245.019,-35.0635 245.019,-35.0635 241.386,-38.4995 241.926,-31.7944 237.754,-41.9356 237.754,-41.9356"/>
</g>
<!-- Event&#45;&gt;Image -->
<g id="edge30" class="edge"><title>Event&#45;&gt;Image</title>
<path fill="none" stroke="#e66f67" d="M388.677,-142.082C376.572,-132.667 361.915,-121.267 349.522,-111.628"/>
<ellipse fill="none" stroke="#e66f67" cx="392.061" cy="-144.714" rx="4.00002" ry="4.00002"/>
<polygon fill="#e66f67" stroke="#e66f67" points="349.256,-111.421 344.125,-101.73 345.309,-108.351 341.362,-105.282 341.362,-105.282 341.362,-105.282 345.309,-108.351 338.599,-108.834 349.256,-111.421 349.256,-111.421"/>
</g>
</g>
</svg>
